<?xml version="1.0" encoding="utf-8"?>
<!-- Generator: Adobe Illustrator 15.1.0, SVG Export Plug-In . SVG Version: 6.00 Build 0)  -->
<!DOCTYPE svg PUBLIC "-//W3C//DTD SVG 1.1//EN" "http://www.w3.org/Graphics/SVG/1.1/DTD/svg11.dtd">
<svg version="1.1" id="Warstwa_1" xmlns="http://www.w3.org/2000/svg" xmlns:xlink="http://www.w3.org/1999/xlink" x="0px" y="0px"
	 width="132.705px" height="42.987px" viewBox="0 0 132.705 42.987" enable-background="new 0 0 132.705 42.987"
	 xml:space="preserve">
<g>
	<g>
		<path fill="#FFFFFF" d="M77.771,8.405h-3.303v2.574h3.691v1.313h-5.291V3.53h5.098v1.313h-3.498v2.263h3.303V8.405z"/>
		<path fill="#FFFFFF" d="M78.26,12.393h-5.49V3.431h5.297v1.513h-3.498v2.062h3.303v1.5h-3.303v2.375h3.691V12.393z M72.969,12.192
			h5.092v-1.113h-3.691V8.306h3.303v-1.1h-3.303V4.743h3.498V3.63h-4.898V12.192z"/>
	</g>
	<g>
		<path fill="#FFFFFF" d="M84.895,10.395c0,0.754,0.025,1.378,0.053,1.897h-1.391l-0.078-0.949h-0.039
			c-0.273,0.443-0.898,1.093-2.041,1.093c-1.145,0-2.197-0.688-2.197-2.757V5.962h1.598v3.444c0,1.054,0.34,1.729,1.184,1.729
			c0.65,0,1.066-0.442,1.223-0.858c0.064-0.13,0.09-0.312,0.09-0.494V5.962h1.6V10.395z"/>
		<path fill="#FFFFFF" d="M81.398,12.536c-0.691,0-2.297-0.279-2.297-2.857V5.861h1.797v3.545c0,1.081,0.365,1.629,1.084,1.629
			c0.615,0,0.992-0.427,1.129-0.793c0.055-0.112,0.084-0.272,0.084-0.459V5.861h1.799v4.533c0,0.775,0.029,1.419,0.053,1.894
			l0.006,0.104h-1.588l-0.068-0.813C83.105,11.963,82.486,12.536,81.398,12.536z M79.301,6.062v3.617
			c0,2.312,1.314,2.656,2.098,2.656c1.182,0,1.762-0.73,1.955-1.045l0.029-0.047h0.188l0.078,0.949h1.193
			c-0.023-0.465-0.047-1.074-0.047-1.798V6.062h-1.4v3.722c0,0.153-0.018,0.372-0.102,0.539c-0.154,0.416-0.594,0.913-1.311,0.913
			c-0.586,0-1.283-0.317-1.283-1.829V6.062H79.301z"/>
	</g>
	<g>
		<path fill="#FFFFFF" d="M86.469,8.003c0-0.859-0.014-1.482-0.053-2.041h1.377l0.066,1.195h0.039
			c0.311-0.884,1.053-1.339,1.742-1.339c0.156,0,0.246,0.013,0.377,0.039v1.495c-0.145-0.026-0.287-0.039-0.482-0.039
			c-0.754,0-1.287,0.48-1.43,1.209c-0.025,0.143-0.039,0.313-0.039,0.48v3.289h-1.598V8.003z"/>
		<path fill="#FFFFFF" d="M88.166,12.393h-1.797v-4.39c0-0.9-0.016-1.508-0.053-2.035l-0.008-0.106h1.58l0.051,0.948
			c0.395-0.751,1.109-1.092,1.701-1.092c0.164,0,0.262,0.015,0.396,0.041l0.08,0.018v1.695L90,7.45
			c-0.145-0.025-0.283-0.037-0.465-0.037c-0.684,0-1.195,0.433-1.332,1.129c-0.023,0.131-0.037,0.291-0.037,0.461V12.393z
			 M86.568,12.192h1.398V9.003c0-0.182,0.014-0.354,0.041-0.498c0.156-0.797,0.742-1.291,1.527-1.291
			c0.145,0,0.266,0.006,0.383,0.021V5.94c-0.086-0.016-0.164-0.021-0.277-0.021c-0.555,0-1.318,0.332-1.648,1.271l-0.023,0.066
			h-0.205l-0.064-1.195h-1.178c0.033,0.507,0.047,1.097,0.047,1.941V12.192z"/>
	</g>
	<g>
		<path fill="#FFFFFF" d="M96.842,9.068c0,2.327-1.637,3.367-3.25,3.367c-1.781,0-3.172-1.222-3.172-3.263
			c0-2.08,1.365-3.354,3.277-3.354C95.582,5.818,96.842,7.144,96.842,9.068z M92.072,9.134c0,1.222,0.609,2.145,1.572,2.145
			c0.91,0,1.547-0.884,1.547-2.171c0-0.988-0.441-2.132-1.533-2.132C92.527,6.976,92.072,8.081,92.072,9.134z"/>
		<path fill="#FFFFFF" d="M93.592,12.536c-1.926,0-3.271-1.384-3.271-3.363c0-2.066,1.357-3.455,3.377-3.455
			c1.941,0,3.244,1.347,3.244,3.351C96.941,11.464,95.26,12.536,93.592,12.536z M93.697,5.919c-1.93,0-3.178,1.277-3.178,3.254
			c0,1.892,1.236,3.162,3.072,3.162c1.568,0,3.15-1.01,3.15-3.267C96.742,7.185,95.518,5.919,93.697,5.919z M93.645,11.378
			c-0.984,0-1.672-0.923-1.672-2.244c0-1.042,0.441-2.259,1.686-2.259c1.123,0,1.633,1.157,1.633,2.232
			C95.291,10.444,94.615,11.378,93.645,11.378z M93.658,7.075c-1.098,0-1.486,1.109-1.486,2.059c0,1.203,0.605,2.045,1.473,2.045
			c0.852,0,1.447-0.852,1.447-2.071C95.092,8.353,94.789,7.075,93.658,7.075z"/>
	</g>
	<g>
		<path fill="#FFFFFF" d="M98,8.067c0-0.832-0.027-1.508-0.053-2.105h1.404l0.078,0.975h0.025c0.469-0.715,1.209-1.118,2.172-1.118
			c1.455,0,2.664,1.248,2.664,3.224c0,2.289-1.443,3.394-2.887,3.394c-0.793,0-1.455-0.338-1.779-0.845h-0.027v3.275H98V8.067z
			 M99.598,9.64c0,0.156,0.014,0.3,0.039,0.443c0.17,0.649,0.729,1.117,1.418,1.117c1.014,0,1.611-0.845,1.611-2.093
			c0-1.118-0.545-2.028-1.572-2.028c-0.664,0-1.275,0.48-1.443,1.184c-0.025,0.129-0.053,0.272-0.053,0.402V9.64z"/>
		<path fill="#FFFFFF" d="M99.697,14.967H97.9V8.067c0-0.838-0.027-1.524-0.053-2.102l-0.006-0.104h1.602l0.066,0.827
			c0.498-0.636,1.225-0.971,2.117-0.971c1.602,0,2.764,1.398,2.764,3.324c0,2.4-1.547,3.494-2.986,3.494
			c-0.691,0-1.322-0.258-1.707-0.686V14.967z M98.1,14.767h1.398V11.49h0.182l0.029,0.046c0.316,0.493,0.965,0.799,1.695,0.799
			c1.342,0,2.787-1.029,2.787-3.293c0-1.81-1.078-3.123-2.564-3.123c-0.906,0-1.629,0.37-2.088,1.072L99.51,7.036h-0.174
			l-0.078-0.975h-1.207C98.076,6.618,98.1,7.274,98.1,8.067V14.767z M101.055,11.301c-0.721,0-1.328-0.479-1.514-1.192
			c-0.029-0.156-0.043-0.307-0.043-0.469V8.665c0-0.137,0.027-0.283,0.055-0.422c0.176-0.734,0.824-1.264,1.541-1.264
			c1,0,1.672,0.855,1.672,2.128C102.766,10.44,102.094,11.301,101.055,11.301z M101.094,7.179c-0.627,0-1.191,0.466-1.346,1.107
			c-0.025,0.125-0.051,0.26-0.051,0.379V9.64c0,0.149,0.014,0.288,0.039,0.425c0.16,0.617,0.691,1.036,1.318,1.036
			c0.932,0,1.512-0.764,1.512-1.993C102.566,8.218,102.182,7.179,101.094,7.179z"/>
	</g>
	<g>
		<path fill="#FFFFFF" d="M106.578,9.575c0.039,1.145,0.924,1.639,1.951,1.639c0.74,0,1.26-0.117,1.754-0.287l0.234,1.093
			c-0.547,0.233-1.301,0.403-2.211,0.403c-2.053,0-3.262-1.262-3.262-3.199c0-1.754,1.066-3.405,3.094-3.405
			c2.055,0,2.73,1.69,2.73,3.081c0,0.299-0.027,0.533-0.053,0.676H106.578z M109.361,8.458c0.012-0.586-0.248-1.548-1.314-1.548
			c-0.988,0-1.404,0.897-1.469,1.548H109.361z"/>
		<path fill="#FFFFFF" d="M108.307,12.522c-2.074,0-3.361-1.264-3.361-3.299c0-1.688,0.998-3.506,3.193-3.506
			c2.088,0,2.83,1.715,2.83,3.182c0,0.342-0.033,0.581-0.053,0.693L110.9,9.675h-4.215c0.076,0.903,0.758,1.438,1.844,1.438
			c0.793,0,1.316-0.142,1.723-0.28l0.105-0.037l0.275,1.283l-0.076,0.032C110.119,12.299,109.373,12.522,108.307,12.522z
			 M108.139,5.919c-2.057,0-2.994,1.713-2.994,3.305c0,1.912,1.211,3.099,3.162,3.099c0.973,0,1.666-0.19,2.096-0.363l-0.193-0.901
			c-0.406,0.132-0.924,0.256-1.68,0.256c-1.229,0-2.014-0.665-2.051-1.734l-0.004-0.104h4.258c0.018-0.123,0.037-0.318,0.037-0.576
			C110.77,7.458,110.078,5.919,108.139,5.919z M109.459,8.558h-2.99l0.01-0.109c0.061-0.609,0.459-1.639,1.568-1.639
			c0.4,0,0.727,0.127,0.971,0.377c0.428,0.438,0.447,1.085,0.443,1.273L109.459,8.558z M106.693,8.357h2.566
			c-0.008-0.235-0.066-0.705-0.385-1.03c-0.205-0.211-0.484-0.316-0.828-0.316C107.143,7.011,106.779,7.812,106.693,8.357z"/>
	</g>
	<g>
		<path fill="#FFFFFF" d="M116.914,10.771c0,0.571,0.025,1.131,0.104,1.521h-1.441l-0.117-0.701h-0.039
			c-0.377,0.494-1.041,0.845-1.873,0.845c-1.273,0-1.988-0.923-1.988-1.886c0-1.586,1.416-2.404,3.756-2.392V8.054
			c0-0.416-0.168-1.104-1.287-1.104c-0.623,0-1.273,0.194-1.703,0.468l-0.311-1.039c0.467-0.287,1.287-0.56,2.287-0.56
			c2.029,0,2.613,1.287,2.613,2.679V10.771z M115.354,9.198c-1.131-0.013-2.209,0.221-2.209,1.184c0,0.623,0.402,0.91,0.91,0.91
			c0.65,0,1.105-0.416,1.26-0.871c0.039-0.117,0.039-0.234,0.039-0.352V9.198z"/>
		<path fill="#FFFFFF" d="M113.547,12.536c-1.371,0-2.088-1-2.088-1.986c0-1.573,1.367-2.48,3.756-2.492V8.054
			c0-0.458-0.205-1.004-1.188-1.004c-0.578,0-1.211,0.173-1.648,0.452l-0.111,0.071l-0.373-1.24l0.066-0.041
			c0.588-0.359,1.463-0.574,2.34-0.574c2.242,0,2.713,1.512,2.713,2.779v2.274c0,0.659,0.035,1.165,0.102,1.501l0.025,0.12h-1.65
			l-0.102-0.61C114.955,12.263,114.293,12.536,113.547,12.536z M115.262,8.258c-2.324,0-3.604,0.814-3.604,2.292
			c0,0.888,0.648,1.785,1.889,1.785c0.748,0,1.402-0.293,1.793-0.805l0.029-0.04h0.174l0.117,0.702h1.238
			c-0.057-0.344-0.084-0.82-0.084-1.421V8.497c0-1.177-0.436-2.578-2.514-2.578c-1.141,0-1.891,0.348-2.17,0.505l0.252,0.842
			c0.461-0.259,1.078-0.417,1.645-0.417c1.252,0,1.387,0.844,1.387,1.205v0.205L115.262,8.258z M114.055,11.392
			c-0.623,0-1.01-0.387-1.01-1.01c0-0.852,0.748-1.284,2.225-1.284l0.184,0.001v0.971c0,0.123,0,0.25-0.043,0.383
			C115.25,10.92,114.77,11.392,114.055,11.392z M115.254,9.298c-1.334,0.002-2.01,0.367-2.01,1.084c0,0.73,0.566,0.81,0.811,0.81
			c0.615,0,1.029-0.403,1.166-0.804c0.033-0.101,0.033-0.207,0.033-0.318V9.298z"/>
	</g>
	<g>
		<path fill="#FFFFFF" d="M118.447,7.847c0-0.729-0.025-1.34-0.053-1.885h1.393l0.078,0.948h0.039
			c0.285-0.493,0.975-1.092,2.027-1.092c1.105,0,2.248,0.715,2.248,2.717v3.757h-1.598V8.718c0-0.91-0.338-1.6-1.209-1.6
			c-0.637,0-1.08,0.455-1.248,0.936c-0.053,0.131-0.078,0.326-0.078,0.508v3.73h-1.6V7.847z"/>
		<path fill="#FFFFFF" d="M124.279,12.393h-1.797V8.718c0-0.685-0.193-1.5-1.109-1.5c-0.627,0-1.014,0.469-1.154,0.869
			c-0.045,0.114-0.072,0.295-0.072,0.475v3.831h-1.799V7.847c0-0.73-0.027-1.354-0.053-1.881l-0.004-0.104h1.588l0.066,0.806
			c0.365-0.488,1.039-0.949,1.986-0.949c1.135,0,2.348,0.74,2.348,2.817V12.393z M122.682,12.192h1.398V8.535
			c0-2.429-1.645-2.616-2.148-2.616c-0.986,0-1.648,0.537-1.941,1.041l-0.029,0.051h-0.188l-0.078-0.949H118.5
			c0.023,0.507,0.047,1.099,0.047,1.785v4.346h1.4V8.562c0-0.207,0.031-0.41,0.084-0.545c0.162-0.458,0.611-0.998,1.342-0.998
			c0.844,0,1.309,0.604,1.309,1.699V12.192z"/>
	</g>
	<g>
		<path fill="#FFFFFF" d="M72.869,19.13h1.6v7.424h3.602v1.339h-5.201V19.13z"/>
		<path fill="#FFFFFF" d="M78.17,27.992h-5.4V19.03h1.799v7.424h3.602V27.992z M72.969,27.793h5.002v-1.14h-3.602V19.23h-1.4V27.793
			z"/>
	</g>
	<g>
		<path fill="#FFFFFF" d="M80.047,25.175c0.039,1.145,0.922,1.639,1.949,1.639c0.74,0,1.262-0.117,1.756-0.286l0.232,1.093
			c-0.545,0.233-1.299,0.402-2.209,0.402c-2.055,0-3.264-1.261-3.264-3.197c0-1.756,1.066-3.406,3.094-3.406
			c2.055,0,2.73,1.689,2.73,3.08c0,0.299-0.025,0.533-0.051,0.676H80.047z M82.828,24.058c0.014-0.586-0.246-1.547-1.313-1.547
			c-0.988,0-1.404,0.896-1.469,1.547H82.828z"/>
		<path fill="#FFFFFF" d="M81.775,28.122c-2.074,0-3.363-1.263-3.363-3.297c0-1.688,1-3.507,3.193-3.507
			c2.09,0,2.83,1.714,2.83,3.181c0,0.343-0.033,0.581-0.053,0.693l-0.014,0.082h-4.217c0.078,0.903,0.76,1.439,1.844,1.439
			c0.795,0,1.316-0.143,1.723-0.281l0.107-0.036L84.1,27.68l-0.076,0.032C83.586,27.899,82.84,28.122,81.775,28.122z M81.605,21.519
			c-2.057,0-2.994,1.714-2.994,3.307c0,1.91,1.213,3.098,3.164,3.098c0.973,0,1.666-0.19,2.094-0.363l-0.191-0.902
			c-0.406,0.132-0.926,0.256-1.682,0.256c-1.229,0-2.014-0.664-2.049-1.735l-0.004-0.103h4.256c0.016-0.117,0.037-0.315,0.037-0.576
			C84.236,23.059,83.545,21.519,81.605,21.519z M82.926,24.157h-2.99l0.012-0.109c0.061-0.608,0.457-1.637,1.568-1.637
			c0.398,0,0.725,0.126,0.971,0.376c0.426,0.437,0.447,1.085,0.441,1.272L82.926,24.157z M80.16,23.958h2.568
			c-0.008-0.235-0.068-0.706-0.387-1.031c-0.205-0.21-0.482-0.316-0.826-0.316C80.611,22.61,80.248,23.411,80.16,23.958z"/>
	</g>
	<g>
		<path fill="#FFFFFF" d="M91.201,26.97c0,1.326-0.273,2.275-0.936,2.873c-0.65,0.585-1.574,0.768-2.445,0.768
			c-0.805,0-1.664-0.183-2.209-0.508l0.35-1.209c0.404,0.234,1.08,0.48,1.848,0.48c1.039,0,1.82-0.545,1.82-1.91v-0.547h-0.027
			c-0.363,0.56-1,0.937-1.846,0.937c-1.572,0-2.691-1.3-2.691-3.095c0-2.08,1.352-3.34,2.873-3.34c0.975,0,1.535,0.467,1.834,0.987
			h0.025l0.064-0.845h1.393c-0.027,0.429-0.053,0.949-0.053,1.82V26.97z M89.602,24.097c0-0.156-0.012-0.299-0.051-0.43
			c-0.17-0.584-0.625-1.027-1.301-1.027c-0.896,0-1.561,0.781-1.561,2.068c0,1.078,0.547,1.949,1.547,1.949
			c0.6,0,1.119-0.39,1.301-0.975c0.053-0.156,0.064-0.377,0.064-0.559V24.097z"/>
		<path fill="#FFFFFF" d="M87.82,30.71c-0.854,0-1.721-0.199-2.26-0.521l-0.066-0.04l0.406-1.405l0.111,0.063
			c0.188,0.11,0.875,0.468,1.797,0.468c0.785,0,1.721-0.314,1.721-1.811v-0.279c-0.42,0.498-1.039,0.769-1.773,0.769
			c-1.617,0-2.791-1.343-2.791-3.194c0-2.259,1.496-3.44,2.973-3.44c0.932,0,1.473,0.409,1.779,0.823l0.053-0.68h1.59l-0.006,0.105
			c-0.025,0.414-0.053,0.929-0.053,1.814v3.588c0,1.415-0.309,2.352-0.969,2.947C89.746,30.443,88.902,30.71,87.82,30.71z
			 M85.729,30.055c0.516,0.282,1.307,0.456,2.092,0.456c1.031,0,1.83-0.25,2.379-0.742c0.615-0.555,0.902-1.444,0.902-2.799v-3.588
			c0-0.817,0.021-1.321,0.045-1.721h-1.191l-0.064,0.845h-0.178l-0.029-0.05c-0.244-0.428-0.748-0.938-1.746-0.938
			c-1.377,0-2.773,1.113-2.773,3.24c0,1.735,1.09,2.995,2.592,2.995c0.762,0,1.389-0.316,1.762-0.892l0.029-0.045h0.182v0.646
			c0,1.296-0.682,2.01-1.92,2.01c-0.838,0-1.494-0.281-1.785-0.433L85.729,30.055z M88.236,26.757c-0.984,0-1.646-0.823-1.646-2.049
			c0-1.297,0.668-2.168,1.66-2.168c0.666,0,1.199,0.421,1.396,1.1c0.037,0.127,0.055,0.272,0.055,0.457v1.027
			c0,0.253-0.023,0.451-0.07,0.591C89.438,26.337,88.877,26.757,88.236,26.757z M88.25,22.739c-0.873,0-1.461,0.791-1.461,1.969
			c0,1.123,0.568,1.85,1.447,1.85c0.553,0,1.037-0.364,1.205-0.904c0.039-0.119,0.061-0.302,0.061-0.529v-1.027
			c0-0.165-0.016-0.292-0.047-0.401C89.281,23.097,88.832,22.739,88.25,22.739z"/>
	</g>
	<g>
		<path fill="#FFFFFF" d="M94.412,19.794c0,0.467-0.352,0.857-0.91,0.857c-0.533,0-0.885-0.391-0.885-0.857
			c0-0.494,0.365-0.871,0.898-0.871C94.061,18.923,94.398,19.3,94.412,19.794z M92.709,27.893v-6.331h1.6v6.331H92.709z"/>
		<path fill="#FFFFFF" d="M94.408,27.992h-1.799v-6.53h1.799V27.992z M92.809,27.793h1.4v-6.132h-1.4V27.793z M93.502,20.751
			c-0.561,0-0.984-0.412-0.984-0.957c0-0.563,0.42-0.972,0.998-0.972c0.57,0,0.98,0.398,0.996,0.968
			C94.512,20.349,94.088,20.751,93.502,20.751z M93.516,19.022c-0.471,0-0.799,0.316-0.799,0.771c0,0.438,0.33,0.758,0.785,0.758
			c0.471,0,0.811-0.319,0.811-0.758C94.301,19.333,93.979,19.022,93.516,19.022z"/>
	</g>
	<g>
		<path fill="#FFFFFF" d="M95.816,26.411c0.35,0.221,1.039,0.467,1.611,0.467c0.703,0,1.014-0.299,1.014-0.715
			c0-0.429-0.26-0.637-1.039-0.922c-1.236-0.416-1.742-1.093-1.742-1.847c0-1.118,0.922-1.976,2.393-1.976
			c0.701,0,1.313,0.168,1.689,0.377l-0.324,1.117c-0.262-0.156-0.781-0.363-1.34-0.363c-0.572,0-0.885,0.285-0.885,0.676
			c0,0.402,0.299,0.585,1.105,0.884c1.158,0.403,1.678,0.988,1.689,1.925c0,1.156-0.896,1.988-2.574,1.988
			c-0.766,0-1.455-0.182-1.924-0.441L95.816,26.411z"/>
		<path fill="#FFFFFF" d="M97.414,28.122c-0.732,0-1.451-0.165-1.973-0.453l-0.068-0.039l0.383-1.375l0.113,0.071
			c0.348,0.219,1.012,0.452,1.559,0.452c0.59,0,0.914-0.219,0.914-0.615c0-0.366-0.219-0.552-0.975-0.828
			c-1.494-0.503-1.807-1.333-1.807-1.94c0-1.223,1.023-2.076,2.492-2.076c0.646,0,1.297,0.146,1.738,0.39l0.068,0.039l-0.383,1.318
			l-0.111-0.066c-0.268-0.161-0.766-0.35-1.287-0.35c-0.484,0-0.785,0.221-0.785,0.576c0,0.321,0.215,0.484,1.041,0.79
			c1.199,0.418,1.742,1.04,1.754,2.018C100.088,27.322,99.064,28.122,97.414,28.122z M95.609,27.53
			c0.484,0.25,1.137,0.393,1.805,0.393c1.527,0,2.475-0.724,2.475-1.889c-0.012-0.891-0.498-1.438-1.623-1.83
			c-0.826-0.307-1.172-0.51-1.172-0.979c0-0.472,0.387-0.775,0.984-0.775c0.496,0,0.973,0.158,1.277,0.314l0.268-0.918
			c-0.41-0.207-0.99-0.328-1.57-0.328c-1.35,0-2.293,0.771-2.293,1.876c0,0.777,0.578,1.383,1.674,1.752
			c0.752,0.274,1.107,0.496,1.107,1.017c0,0.245-0.107,0.814-1.113,0.814c-0.527,0-1.16-0.203-1.551-0.415L95.609,27.53z"/>
	</g>
	<g>
		<path fill="#FFFFFF" d="M101.658,18.662h1.598v9.23h-1.598V18.662z"/>
		<path fill="#FFFFFF" d="M103.355,27.992h-1.797v-9.431h1.797V27.992z M101.758,27.793h1.398v-9.03h-1.398V27.793z"/>
	</g>
	<g>
		<path fill="#FFFFFF" d="M109.869,25.999c0,0.571,0.025,1.131,0.104,1.521h-1.441l-0.117-0.702h-0.039
			c-0.377,0.494-1.041,0.846-1.873,0.846c-1.273,0-1.988-0.924-1.988-1.886c0-1.586,1.416-2.405,3.756-2.392v-0.104
			c0-0.416-0.168-1.104-1.287-1.104c-0.623,0-1.273,0.195-1.703,0.468l-0.311-1.04c0.467-0.286,1.287-0.559,2.287-0.559
			c2.029,0,2.613,1.287,2.613,2.678V25.999z M108.309,24.425c-1.131-0.012-2.209,0.222-2.209,1.184c0,0.624,0.402,0.91,0.91,0.91
			c0.65,0,1.105-0.416,1.26-0.871c0.039-0.117,0.039-0.234,0.039-0.352V24.425z"/>
		<path fill="#FFFFFF" d="M106.502,27.763c-1.371,0-2.088-0.999-2.088-1.985c0-1.574,1.367-2.481,3.756-2.491v-0.005
			c0-0.458-0.205-1.005-1.188-1.005c-0.576,0-1.209,0.174-1.648,0.452l-0.111,0.071l-0.373-1.24l0.066-0.04
			c0.588-0.36,1.463-0.574,2.34-0.574c2.242,0,2.713,1.511,2.713,2.778v2.275c0,0.66,0.035,1.165,0.102,1.501l0.025,0.119h-1.65
			l-0.102-0.609C107.908,27.49,107.248,27.763,106.502,27.763z M108.213,23.485c-2.322,0-3.6,0.814-3.6,2.292
			c0,0.888,0.648,1.786,1.889,1.786c0.748,0,1.402-0.294,1.793-0.807l0.029-0.039h0.174l0.117,0.702h1.238
			c-0.057-0.344-0.084-0.821-0.084-1.421v-2.275c0-1.176-0.436-2.578-2.514-2.578c-1.141,0-1.891,0.349-2.17,0.506l0.252,0.842
			c0.463-0.259,1.078-0.416,1.645-0.416c1.252,0,1.387,0.842,1.387,1.204v0.205L108.213,23.485z M107.01,26.618
			c-0.623,0-1.01-0.387-1.01-1.01c0-0.852,0.75-1.284,2.23-1.284l0.178,0.002v0.97c0,0.123,0,0.251-0.043,0.383
			C108.205,26.147,107.725,26.618,107.01,26.618z M108.209,24.524c-1.334,0.004-2.01,0.368-2.01,1.084
			c0,0.731,0.566,0.811,0.811,0.811c0.615,0,1.029-0.404,1.166-0.804c0.033-0.102,0.033-0.207,0.033-0.319V24.524z"/>
	</g>
	<g>
		<path fill="#FFFFFF" d="M114.002,19.798v1.656h1.52v1.218h-1.52v2.848c0,0.796,0.207,1.193,0.818,1.193
			c0.285,0,0.441-0.014,0.623-0.067l0.027,1.232c-0.234,0.094-0.664,0.173-1.158,0.173c-0.598,0-1.078-0.199-1.377-0.53
			c-0.352-0.371-0.508-0.967-0.508-1.814v-3.034h-0.896v-1.218h0.896v-1.205L114.002,19.798z"/>
		<path fill="#FFFFFF" d="M114.313,28.152c-0.607,0-1.123-0.2-1.451-0.563c-0.363-0.384-0.533-0.982-0.533-1.883v-2.933h-0.896
			v-1.421h0.896v-1.182l1.773-0.508v1.689h1.52v1.421h-1.52v2.746c0,0.785,0.201,1.092,0.719,1.092c0.295,0,0.434-0.016,0.596-0.063
			l0.125-0.038l0.031,1.436l-0.066,0.026C115.289,28.06,114.859,28.152,114.313,28.152z M111.631,22.57h0.896v3.136
			c0,0.832,0.158,1.402,0.48,1.744c0.291,0.322,0.754,0.499,1.305,0.499c0.467,0,0.846-0.072,1.057-0.144l-0.023-1.03
			c-0.154,0.032-0.311,0.039-0.525,0.039c-0.814,0-0.918-0.692-0.918-1.295V22.57h1.52v-1.015h-1.52v-1.623l-1.375,0.393v1.23
			h-0.896V22.57z"/>
	</g>
	<g>
		<path fill="#FFFFFF" d="M118.352,19.663c0,0.469-0.352,0.858-0.91,0.858c-0.533,0-0.885-0.39-0.885-0.858
			c0-0.494,0.365-0.871,0.898-0.871C118,18.792,118.338,19.169,118.352,19.663z M116.648,27.763v-6.331h1.6v6.331H116.648z"/>
		<path fill="#FFFFFF" d="M118.348,27.862h-1.799v-6.53h1.799V27.862z M116.748,27.663h1.4v-6.132h-1.4V27.663z M117.441,20.622
			c-0.561,0-0.984-0.412-0.984-0.959c0-0.563,0.42-0.971,0.998-0.971c0.57,0,0.98,0.398,0.996,0.969
			C118.451,20.219,118.027,20.622,117.441,20.622z M117.455,18.893c-0.471,0-0.799,0.317-0.799,0.771
			c0,0.439,0.33,0.758,0.785,0.758c0.471,0,0.811-0.318,0.811-0.758C118.24,19.204,117.918,18.893,117.455,18.893z"/>
	</g>
	<g>
		<path fill="#FFFFFF" d="M125.346,24.669c0,2.326-1.639,3.367-3.25,3.367c-1.781,0-3.172-1.223-3.172-3.264
			c0-2.08,1.365-3.354,3.275-3.354C124.084,21.419,125.346,22.745,125.346,24.669z M120.574,24.733c0,1.223,0.611,2.145,1.572,2.145
			c0.91,0,1.549-0.883,1.549-2.17c0-0.988-0.443-2.133-1.535-2.133C121.029,22.575,120.574,23.681,120.574,24.733z"/>
		<path fill="#FFFFFF" d="M122.096,28.136c-1.928,0-3.271-1.383-3.271-3.363c0-2.066,1.355-3.454,3.375-3.454
			c1.941,0,3.246,1.347,3.246,3.351C125.445,27.064,123.762,28.136,122.096,28.136z M122.199,21.519
			c-1.93,0-3.176,1.277-3.176,3.254c0,1.893,1.234,3.164,3.072,3.164c1.568,0,3.15-1.011,3.15-3.268
			C125.246,22.784,124.021,21.519,122.199,21.519z M122.146,26.978c-0.984,0-1.672-0.923-1.672-2.244
			c0-1.042,0.441-2.258,1.686-2.258c1.123,0,1.635,1.157,1.635,2.232C123.795,26.045,123.117,26.978,122.146,26.978z M122.16,22.675
			c-1.096,0-1.486,1.109-1.486,2.059c0,1.204,0.605,2.045,1.473,2.045c0.854,0,1.449-0.852,1.449-2.07
			C123.596,23.953,123.293,22.675,122.16,22.675z"/>
	</g>
	<g>
		<path fill="#FFFFFF" d="M126.873,23.446c0-0.729-0.027-1.339-0.053-1.885h1.391l0.078,0.949h0.039
			c0.287-0.494,0.975-1.092,2.027-1.092c1.105,0,2.25,0.715,2.25,2.717v3.757h-1.6v-3.575c0-0.91-0.338-1.6-1.209-1.6
			c-0.637,0-1.078,0.455-1.248,0.937c-0.051,0.13-0.078,0.325-0.078,0.507v3.731h-1.598V23.446z"/>
		<path fill="#FFFFFF" d="M132.705,27.992h-1.799v-3.675c0-0.685-0.191-1.5-1.109-1.5c-0.625,0-1.012,0.469-1.152,0.87
			c-0.047,0.113-0.074,0.294-0.074,0.474v3.831h-1.797v-4.546c0-0.729-0.027-1.329-0.053-1.88l-0.006-0.104h1.588l0.066,0.806
			c0.365-0.488,1.041-0.949,1.986-0.949c1.137,0,2.35,0.74,2.35,2.817V27.992z M131.105,27.793h1.4v-3.657
			c0-2.429-1.646-2.617-2.15-2.617c-0.986,0-1.648,0.538-1.939,1.042l-0.029,0.05h-0.189l-0.078-0.949h-1.195
			c0.025,0.507,0.049,1.1,0.049,1.785v4.347h1.398v-3.632c0-0.207,0.031-0.41,0.086-0.544c0.16-0.459,0.609-0.999,1.34-0.999
			c0.844,0,1.309,0.604,1.309,1.699V27.793z"/>
	</g>
	<g>
		<path fill="#FFFFFF" d="M74.469,34.125v8.763h-1.6v-8.763H74.469z"/>
		<path fill="#FFFFFF" d="M74.568,42.987H72.77v-8.962h1.799V42.987z M72.969,42.788h1.4v-8.563h-1.4V42.788z"/>
	</g>
	<g>
		<path fill="#FFFFFF" d="M81.918,33.515v7.449c0,0.65,0.025,1.352,0.051,1.781h-1.416l-0.078-1.002h-0.025
			c-0.377,0.703-1.145,1.145-2.055,1.145c-1.521,0-2.717-1.287-2.717-3.236c-0.014-2.119,1.313-3.381,2.834-3.381
			c0.871,0,1.494,0.352,1.781,0.818h0.025v-3.574H81.918z M80.318,39.052c0-0.129-0.014-0.299-0.039-0.428
			c-0.143-0.611-0.65-1.119-1.379-1.119c-1.025,0-1.598,0.91-1.598,2.08s0.572,2.016,1.586,2.016c0.65,0,1.221-0.441,1.377-1.131
			c0.039-0.143,0.053-0.299,0.053-0.469V39.052z"/>
		<path fill="#FFFFFF" d="M78.395,42.987c-1.633,0-2.816-1.402-2.816-3.336c-0.008-1.08,0.338-2.025,0.971-2.662
			c0.525-0.528,1.223-0.818,1.963-0.818c0.721,0,1.338,0.24,1.707,0.653v-3.409h1.799v7.549c0,0.666,0.027,1.373,0.051,1.775
			l0.008,0.105h-1.617l-0.064-0.825C79.963,42.63,79.234,42.987,78.395,42.987z M78.512,36.37c-0.688,0-1.334,0.271-1.82,0.761
			c-0.596,0.599-0.92,1.493-0.914,2.52c0,1.818,1.1,3.138,2.617,3.138c0.865,0,1.6-0.408,1.967-1.092l0.027-0.053h0.178l0.078,1.002
			h1.219c-0.021-0.416-0.045-1.066-0.045-1.682v-7.35h-1.4v3.574h-0.182l-0.029-0.047C79.912,36.658,79.277,36.37,78.512,36.37z
			 M78.889,41.7c-1.025,0-1.686-0.83-1.686-2.115c0-1.304,0.682-2.18,1.697-2.18c0.826,0,1.338,0.601,1.477,1.196
			c0.025,0.13,0.041,0.305,0.041,0.45v0.949c0,0.197-0.018,0.355-0.055,0.495C80.199,41.215,79.607,41.7,78.889,41.7z M78.9,37.604
			c-0.91,0-1.498,0.777-1.498,1.98c0,1.182,0.568,1.916,1.486,1.916c0.623,0,1.137-0.424,1.279-1.054
			c0.035-0.126,0.051-0.267,0.051-0.446v-0.949c0-0.134-0.014-0.294-0.037-0.408C80.061,38.128,79.617,37.604,78.9,37.604z"/>
	</g>
	<g>
		<path fill="#FFFFFF" d="M84.609,40.042c0.039,1.143,0.922,1.637,1.949,1.637c0.74,0,1.262-0.117,1.756-0.285l0.232,1.092
			c-0.545,0.234-1.299,0.402-2.209,0.402c-2.055,0-3.264-1.26-3.264-3.197c0-1.756,1.066-3.406,3.094-3.406
			c2.055,0,2.73,1.689,2.73,3.08c0,0.301-0.025,0.533-0.051,0.678H84.609z M87.391,38.923c0.014-0.584-0.246-1.547-1.313-1.547
			c-0.988,0-1.404,0.896-1.469,1.547H87.391z"/>
		<path fill="#FFFFFF" d="M86.338,42.987c-2.074,0-3.363-1.263-3.363-3.297c0-1.688,1-3.506,3.193-3.506
			c2.09,0,2.83,1.713,2.83,3.18c0,0.341-0.033,0.582-0.053,0.695l-0.014,0.082h-4.217c0.078,0.902,0.76,1.438,1.844,1.438
			c0.793,0,1.316-0.142,1.723-0.28l0.107-0.036l0.273,1.282l-0.076,0.032C88.15,42.765,87.406,42.987,86.338,42.987z M86.168,36.384
			c-2.057,0-2.994,1.714-2.994,3.307c0,1.91,1.213,3.098,3.164,3.098c0.975,0,1.668-0.19,2.094-0.363l-0.191-0.901
			c-0.408,0.132-0.928,0.255-1.682,0.255c-1.227,0-2.014-0.664-2.049-1.733l-0.004-0.103h4.256c0.018-0.124,0.037-0.32,0.037-0.578
			C88.799,37.924,88.107,36.384,86.168,36.384z M87.488,39.022h-2.99l0.012-0.109c0.061-0.608,0.457-1.637,1.568-1.637
			c0.398,0,0.725,0.126,0.969,0.376c0.428,0.438,0.449,1.085,0.443,1.272L87.488,39.022z M84.723,38.823h2.568
			c-0.008-0.235-0.068-0.705-0.387-1.03c-0.205-0.211-0.482-0.317-0.826-0.317C85.174,37.476,84.811,38.276,84.723,38.823z"/>
	</g>
	<g>
		<path fill="#FFFFFF" d="M90.277,38.44c0-0.727-0.027-1.338-0.053-1.885h1.391l0.078,0.949h0.039
			c0.287-0.494,0.975-1.092,2.027-1.092c1.105,0,2.25,0.715,2.25,2.717v3.758h-1.6v-3.576c0-0.91-0.338-1.598-1.209-1.598
			c-0.637,0-1.078,0.455-1.248,0.936c-0.051,0.129-0.078,0.324-0.078,0.506v3.732h-1.598V38.44z"/>
		<path fill="#FFFFFF" d="M96.109,42.987h-1.799v-3.676c0-0.684-0.191-1.498-1.109-1.498c-0.625,0-1.012,0.469-1.152,0.869
			c-0.047,0.113-0.074,0.293-0.074,0.473v3.832h-1.797V38.44c0-0.728-0.027-1.352-0.053-1.88l-0.006-0.104h1.588l0.066,0.806
			c0.365-0.488,1.041-0.948,1.986-0.948c1.137,0,2.35,0.739,2.35,2.816V42.987z M94.51,42.788h1.4V39.13
			c0-2.428-1.646-2.617-2.15-2.617c-0.986,0-1.648,0.539-1.939,1.042l-0.029,0.05h-0.189l-0.078-0.949h-1.195
			c0.025,0.508,0.049,1.101,0.049,1.785v4.348h1.398v-3.633c0-0.207,0.031-0.41,0.086-0.543c0.16-0.458,0.609-0.998,1.34-0.998
			c0.844,0,1.309,0.603,1.309,1.697V42.788z"/>
	</g>
	<g>
		<path fill="#FFFFFF" d="M99.512,34.788v1.625h1.521v1.197h-1.521v2.795c0,0.779,0.209,1.17,0.818,1.17
			c0.287,0,0.443-0.014,0.625-0.066l0.025,1.209c-0.234,0.092-0.662,0.17-1.156,0.17c-0.598,0-1.08-0.195-1.379-0.52
			c-0.35-0.365-0.506-0.949-0.506-1.781V37.61h-0.898v-1.197h0.898V35.23L99.512,34.788z"/>
		<path fill="#FFFFFF" d="M99.824,42.987c-0.609,0-1.123-0.195-1.451-0.552c-0.363-0.378-0.533-0.966-0.533-1.849V37.71h-0.898
			v-1.396h0.898v-1.159l1.771-0.498v1.657h1.521v1.396h-1.521v2.695c0,0.77,0.203,1.07,0.719,1.07c0.293,0,0.432-0.015,0.596-0.063
			l0.125-0.037l0.031,1.409l-0.064,0.025C100.799,42.896,100.371,42.987,99.824,42.987z M97.141,37.511h0.898v3.076
			c0,0.816,0.156,1.376,0.479,1.712c0.291,0.315,0.754,0.489,1.307,0.489c0.467,0,0.844-0.071,1.055-0.141l-0.021-1.012
			c-0.156,0.032-0.313,0.039-0.527,0.039c-0.814,0-0.918-0.679-0.918-1.27v-2.895h1.521v-0.998h-1.521V34.92l-1.373,0.387v1.206
			h-0.898V37.511z"/>
	</g>
	<g>
		<path fill="#FFFFFF" d="M111.865,34.788c0,0.468-0.352,0.857-0.91,0.857c-0.533,0-0.885-0.39-0.885-0.857
			c0-0.494,0.365-0.871,0.898-0.871C111.514,33.917,111.852,34.294,111.865,34.788z M110.162,42.888v-6.332h1.6v6.332H110.162z"/>
		<path fill="#FFFFFF" d="M111.861,42.987h-1.799v-6.531h1.799V42.987z M110.262,42.788h1.4v-6.133h-1.4V42.788z M110.955,35.745
			c-0.561,0-0.984-0.411-0.984-0.957c0-0.563,0.42-0.971,0.998-0.971c0.57,0,0.98,0.397,0.996,0.968
			C111.965,35.343,111.541,35.745,110.955,35.745z M110.969,34.017c-0.471,0-0.799,0.317-0.799,0.771
			c0,0.438,0.33,0.758,0.785,0.758c0.471,0,0.811-0.319,0.811-0.758C111.754,34.328,111.432,34.017,110.969,34.017z"/>
	</g>
	<g>
		<path fill="#FFFFFF" d="M103.553,34.788c0,0.468-0.352,0.857-0.91,0.857c-0.533,0-0.885-0.39-0.885-0.857
			c0-0.494,0.363-0.871,0.896-0.871C103.201,33.917,103.539,34.294,103.553,34.788z M101.85,42.888v-6.332h1.598v6.332H101.85z"/>
		<path fill="#FFFFFF" d="M103.547,42.987h-1.797v-6.531h1.797V42.987z M101.949,42.788h1.398v-6.133h-1.398V42.788z
			 M102.643,35.745c-0.563,0-0.984-0.411-0.984-0.957c0-0.563,0.418-0.971,0.996-0.971c0.572,0,0.982,0.397,0.998,0.968
			C103.652,35.343,103.227,35.745,102.643,35.745z M102.654,34.017c-0.469,0-0.797,0.317-0.797,0.771
			c0,0.438,0.33,0.758,0.785,0.758c0.469,0,0.811-0.319,0.811-0.758C103.439,34.328,103.119,34.017,102.654,34.017z"/>
	</g>
	<g>
		<path fill="#FFFFFF" d="M115.18,40.042c0.039,1.143,0.922,1.637,1.949,1.637c0.742,0,1.262-0.117,1.756-0.285l0.234,1.092
			c-0.547,0.234-1.301,0.402-2.211,0.402c-2.055,0-3.264-1.26-3.264-3.197c0-1.756,1.066-3.406,3.094-3.406
			c2.055,0,2.73,1.689,2.73,3.08c0,0.301-0.025,0.533-0.051,0.678H115.18z M117.961,38.923c0.014-0.584-0.246-1.547-1.313-1.547
			c-0.988,0-1.404,0.896-1.469,1.547H117.961z"/>
		<path fill="#FFFFFF" d="M116.908,42.987c-2.074,0-3.363-1.263-3.363-3.297c0-1.688,1-3.506,3.193-3.506
			c2.09,0,2.83,1.713,2.83,3.18c0,0.341-0.033,0.582-0.053,0.695l-0.014,0.082h-4.217c0.078,0.902,0.76,1.438,1.844,1.438
			c0.793,0,1.316-0.142,1.723-0.28l0.107-0.036l0.275,1.282l-0.076,0.032C118.721,42.765,117.977,42.987,116.908,42.987z
			 M116.738,36.384c-2.057,0-2.994,1.714-2.994,3.307c0,1.91,1.213,3.098,3.164,3.098c0.975,0,1.668-0.19,2.096-0.363l-0.193-0.901
			c-0.408,0.132-0.928,0.255-1.682,0.255c-1.227,0-2.014-0.664-2.049-1.733l-0.004-0.103h4.256c0.018-0.124,0.037-0.32,0.037-0.578
			C119.369,37.924,118.678,36.384,116.738,36.384z M118.059,39.022h-2.99l0.012-0.109c0.061-0.608,0.457-1.637,1.568-1.637
			c0.398,0,0.725,0.126,0.969,0.376c0.428,0.438,0.449,1.085,0.443,1.272L118.059,39.022z M115.293,38.823h2.568
			c-0.008-0.235-0.068-0.705-0.387-1.03c-0.205-0.211-0.482-0.317-0.826-0.317C115.744,37.476,115.381,38.276,115.293,38.823z"/>
	</g>
	<g>
		<path fill="#FFFFFF" d="M120.631,38.532c0-0.857-0.014-1.482-0.053-2.041h1.379l0.064,1.197h0.039
			c0.313-0.885,1.053-1.34,1.742-1.34c0.156,0,0.248,0.013,0.377,0.039v1.494c-0.143-0.025-0.285-0.039-0.48-0.039
			c-0.754,0-1.287,0.482-1.43,1.209c-0.027,0.145-0.039,0.313-0.039,0.482v3.289h-1.6V38.532z"/>
		<path fill="#FFFFFF" d="M122.33,42.923h-1.799v-4.391c0-0.899-0.016-1.508-0.053-2.034l-0.008-0.106h1.58l0.053,0.949
			c0.352-0.673,0.99-1.092,1.699-1.092c0.164,0,0.264,0.014,0.396,0.041l0.08,0.016v1.695l-0.117-0.021
			c-0.148-0.026-0.287-0.038-0.463-0.038c-0.686,0-1.195,0.433-1.332,1.129c-0.023,0.133-0.037,0.293-0.037,0.463V42.923z
			 M120.73,42.724h1.4v-3.189c0-0.182,0.014-0.354,0.039-0.5c0.156-0.797,0.742-1.291,1.529-1.291c0.143,0,0.262,0.007,0.381,0.022
			v-1.295c-0.086-0.015-0.162-0.022-0.277-0.022c-0.553,0-1.316,0.334-1.646,1.273l-0.023,0.066h-0.205l-0.066-1.197h-1.176
			c0.031,0.507,0.045,1.097,0.045,1.941V42.724z"/>
	</g>
</g>
<g>
	<path fill="#FFFFFF" stroke="#FFFFFF" stroke-width="0.2" stroke-miterlimit="10" d="M105.967,42.888v-5.135h-0.857v-1.196h0.857
		v-0.273c0-0.818,0.221-1.638,0.768-2.158c0.469-0.441,1.092-0.61,1.65-0.61c0.43,0,0.768,0.078,1.016,0.155l-0.105,1.235
		c-0.182-0.064-0.389-0.117-0.689-0.117c-0.793,0-1.053,0.663-1.053,1.443v0.325h1.379v1.196h-1.365v5.135H105.967z"/>
</g>
<rect x="53.167" y="14.967" fill="#FFFFFF" width="9.5" height="27.867"/>
<polygon fill="#FFFFFF" points="47.093,34.887 47.093,42.687 27.5,42.687 27.5,1.167 37.33,1.167 37.33,34.887 "/>
<polygon fill="#FFFFFF" points="9.67,9.117 9.67,17.817 20.25,17.817 20.25,25.767 9.67,25.767 9.67,34.887 20.92,34.887 
	20.92,42.837 0,42.837 0,1.167 20.92,1.167 20.92,9.117 "/>
<circle fill="#F7B040" cx="58.105" cy="6.743" r="6.742"/>
<image overflow="visible" width="3840" height="1080" xlink:href="AFB56D77.jpg"  transform="matrix(1 0 0 1 512.7598 -358.333)">
</image>
</svg>
