<svg width="132.705" height="42.987" xmlns="http://www.w3.org/2000/svg" xmlns:xlink="http://www.w3.org/1999/xlink">

 <g>
  <title>background</title>
  <rect fill="none" id="canvas_background" height="402" width="582" y="-1" x="-1"/>
 </g>
 <g>
  <title>Layer 1</title>
  <g id="svg_1">
   <g id="svg_2">
    <path id="svg_3" d="m77.651952,8.405l-3.303,0l0,2.574l3.691,0l0,1.313l-5.291,0l0,-8.762l5.098,0l0,1.313l-3.498,0l0,2.263l3.303,0l0,1.299z" fill="#046dac"/>
    <path id="svg_4" d="m78.140952,12.393l-5.49,0l0,-8.962l5.297,0l0,1.513l-3.498,0l0,2.062l3.303,0l0,1.5l-3.303,0l0,2.375l3.691,0l0,1.512zm-5.291,-0.201l5.092,0l0,-1.113l-3.691,0l0,-2.773l3.303,0l0,-1.1l-3.303,0l0,-2.463l3.498,0l0,-1.113l-4.898,0l0,8.562l-0.001,0z" fill="#046dac"/>
   </g>
   <g id="svg_5">
    <path id="svg_6" d="m84.775952,10.395c0,0.754 0.025,1.378 0.053,1.897l-1.391,0l-0.078,-0.949l-0.039,0c-0.273,0.443 -0.898,1.093 -2.041,1.093c-1.145,0 -2.197,-0.688 -2.197,-2.757l0,-3.717l1.598,0l0,3.444c0,1.054 0.34,1.729 1.184,1.729c0.65,0 1.066,-0.442 1.223,-0.858c0.064,-0.13 0.09,-0.312 0.09,-0.494l0,-3.821l1.6,0l0,4.433l-0.002,0z" fill="#046dac"/>
    <path id="svg_7" d="m81.278952,12.536c-0.691,0 -2.297,-0.279 -2.297,-2.857l0,-3.818l1.797,0l0,3.545c0,1.081 0.365,1.629 1.084,1.629c0.615,0 0.992,-0.427 1.129,-0.793c0.055,-0.112 0.084,-0.272 0.084,-0.459l0,-3.922l1.799,0l0,4.533c0,0.775 0.029,1.419 0.053,1.894l0.006,0.104l-1.588,0l-0.068,-0.813c-0.292,0.384 -0.911,0.957 -1.999,0.957zm-2.097,-6.474l0,3.617c0,2.312 1.314,2.656 2.098,2.656c1.182,0 1.762,-0.73 1.955,-1.045l0.029,-0.047l0.188,0l0.078,0.949l1.193,0c-0.023,-0.465 -0.047,-1.074 -0.047,-1.798l0,-4.332l-1.4,0l0,3.722c0,0.153 -0.018,0.372 -0.102,0.539c-0.154,0.416 -0.594,0.913 -1.311,0.913c-0.586,0 -1.283,-0.317 -1.283,-1.829l0,-3.345l-1.398,0z" fill="#046dac"/>
   </g>
   <g id="svg_8">
    <path id="svg_9" d="m86.349952,8.003c0,-0.859 -0.014,-1.482 -0.053,-2.041l1.377,0l0.066,1.195l0.039,0c0.311,-0.884 1.053,-1.339 1.742,-1.339c0.156,0 0.246,0.013 0.377,0.039l0,1.495c-0.145,-0.026 -0.287,-0.039 -0.482,-0.039c-0.754,0 -1.287,0.48 -1.43,1.209c-0.025,0.143 -0.039,0.313 -0.039,0.48l0,3.289l-1.598,0l0,-4.288l0.001,0z" fill="#046dac"/>
    <path id="svg_10" d="m88.046952,12.393l-1.797,0l0,-4.39c0,-0.9 -0.016,-1.508 -0.053,-2.035l-0.008,-0.106l1.58,0l0.051,0.948c0.395,-0.751 1.109,-1.092 1.701,-1.092c0.164,0 0.262,0.015 0.396,0.041l0.08,0.018l0,1.695l-0.116,-0.022c-0.145,-0.025 -0.283,-0.037 -0.465,-0.037c-0.684,0 -1.195,0.433 -1.332,1.129c-0.023,0.131 -0.037,0.291 -0.037,0.461l0,3.39zm-1.598,-0.201l1.398,0l0,-3.189c0,-0.182 0.014,-0.354 0.041,-0.498c0.156,-0.797 0.742,-1.291 1.527,-1.291c0.145,0 0.266,0.006 0.383,0.021l0,-1.295c-0.086,-0.016 -0.164,-0.021 -0.277,-0.021c-0.555,0 -1.318,0.332 -1.648,1.271l-0.023,0.066l-0.205,0l-0.064,-1.195l-1.178,0c0.033,0.507 0.047,1.097 0.047,1.941l0,4.19l-0.001,0z" fill="#046dac"/>
   </g>
   <g id="svg_11">
    <path id="svg_12" d="m96.722952,9.068c0,2.327 -1.637,3.367 -3.25,3.367c-1.781,0 -3.172,-1.222 -3.172,-3.263c0,-2.08 1.365,-3.354 3.277,-3.354c1.885,0 3.145,1.326 3.145,3.25zm-4.77,0.066c0,1.222 0.609,2.145 1.572,2.145c0.91,0 1.547,-0.884 1.547,-2.171c0,-0.988 -0.441,-2.132 -1.533,-2.132c-1.131,0 -1.586,1.105 -1.586,2.158z" fill="#046dac"/>
    <path id="svg_13" d="m93.472952,12.536c-1.926,0 -3.271,-1.384 -3.271,-3.363c0,-2.066 1.357,-3.455 3.377,-3.455c1.941,0 3.244,1.347 3.244,3.351c-0.001,2.395 -1.682,3.467 -3.35,3.467zm0.105,-6.617c-1.93,0 -3.178,1.277 -3.178,3.254c0,1.892 1.236,3.162 3.072,3.162c1.568,0 3.15,-1.01 3.15,-3.267c0.001,-1.883 -1.223,-3.149 -3.044,-3.149zm-0.052,5.459c-0.984,0 -1.672,-0.923 -1.672,-2.244c0,-1.042 0.441,-2.259 1.686,-2.259c1.123,0 1.633,1.157 1.633,2.232c-0.001,1.337 -0.677,2.271 -1.647,2.271zm0.013,-4.303c-1.098,0 -1.486,1.109 -1.486,2.059c0,1.203 0.605,2.045 1.473,2.045c0.852,0 1.447,-0.852 1.447,-2.071c0,-0.755 -0.303,-2.033 -1.434,-2.033z" fill="#046dac"/>
   </g>
   <g id="svg_14">
    <path id="svg_15" d="m97.880952,8.067c0,-0.832 -0.027,-1.508 -0.053,-2.105l1.404,0l0.078,0.975l0.025,0c0.469,-0.715 1.209,-1.118 2.172,-1.118c1.455,0 2.664,1.248 2.664,3.224c0,2.289 -1.443,3.394 -2.887,3.394c-0.793,0 -1.455,-0.338 -1.779,-0.845l-0.027,0l0,3.275l-1.597,0l0,-6.8zm1.598,1.573c0,0.156 0.014,0.3 0.039,0.443c0.17,0.649 0.729,1.117 1.418,1.117c1.014,0 1.611,-0.845 1.611,-2.093c0,-1.118 -0.545,-2.028 -1.572,-2.028c-0.664,0 -1.275,0.48 -1.443,1.184c-0.025,0.129 -0.053,0.272 -0.053,0.402l0,0.975z" fill="#046dac"/>
    <path id="svg_16" d="m99.577952,14.967l-1.797,0l0,-6.9c0,-0.838 -0.027,-1.524 -0.053,-2.102l-0.006,-0.104l1.602,0l0.066,0.827c0.498,-0.636 1.225,-0.971 2.117,-0.971c1.602,0 2.764,1.398 2.764,3.324c0,2.4 -1.547,3.494 -2.986,3.494c-0.691,0 -1.322,-0.258 -1.707,-0.686l0,3.118zm-1.597,-0.2l1.398,0l0,-3.277l0.182,0l0.029,0.046c0.316,0.493 0.965,0.799 1.695,0.799c1.342,0 2.787,-1.029 2.787,-3.293c0,-1.81 -1.078,-3.123 -2.564,-3.123c-0.906,0 -1.629,0.37 -2.088,1.072l-0.029,0.045l-0.174,0l-0.078,-0.975l-1.207,0c0.025,0.557 0.049,1.213 0.049,2.006l0,6.7zm2.955,-3.466c-0.721,0 -1.328,-0.479 -1.514,-1.192c-0.029,-0.156 -0.043,-0.307 -0.043,-0.469l0,-0.975c0,-0.137 0.027,-0.283 0.055,-0.422c0.176,-0.734 0.824,-1.264 1.541,-1.264c1,0 1.672,0.855 1.672,2.128c0,1.333 -0.672,2.194 -1.711,2.194zm0.039,-4.122c-0.627,0 -1.191,0.466 -1.346,1.107c-0.025,0.125 -0.051,0.26 -0.051,0.379l0,0.975c0,0.149 0.014,0.288 0.039,0.425c0.16,0.617 0.691,1.036 1.318,1.036c0.932,0 1.512,-0.764 1.512,-1.993c0,-0.89 -0.384,-1.929 -1.472,-1.929z" fill="#046dac"/>
   </g>
   <g id="svg_17">
    <path id="svg_18" d="m106.458952,9.575c0.039,1.145 0.924,1.639 1.951,1.639c0.74,0 1.26,-0.117 1.754,-0.287l0.234,1.093c-0.547,0.233 -1.301,0.403 -2.211,0.403c-2.053,0 -3.262,-1.262 -3.262,-3.199c0,-1.754 1.066,-3.405 3.094,-3.405c2.055,0 2.73,1.69 2.73,3.081c0,0.299 -0.027,0.533 -0.053,0.676l-4.237,0l0,-0.001zm2.783,-1.117c0.012,-0.586 -0.248,-1.548 -1.314,-1.548c-0.988,0 -1.404,0.897 -1.469,1.548l2.783,0z" fill="#046dac"/>
    <path id="svg_19" d="m108.187952,12.522c-2.074,0 -3.361,-1.264 -3.361,-3.299c0,-1.688 0.998,-3.506 3.193,-3.506c2.088,0 2.83,1.715 2.83,3.182c0,0.342 -0.033,0.581 -0.053,0.693l-0.016,0.083l-4.215,0c0.076,0.903 0.758,1.438 1.844,1.438c0.793,0 1.316,-0.142 1.723,-0.28l0.105,-0.037l0.275,1.283l-0.076,0.032c-0.437,0.188 -1.183,0.411 -2.249,0.411zm-0.168,-6.603c-2.057,0 -2.994,1.713 -2.994,3.305c0,1.912 1.211,3.099 3.162,3.099c0.973,0 1.666,-0.19 2.096,-0.363l-0.193,-0.901c-0.406,0.132 -0.924,0.256 -1.68,0.256c-1.229,0 -2.014,-0.665 -2.051,-1.734l-0.004,-0.104l4.258,0c0.018,-0.123 0.037,-0.318 0.037,-0.576c0,-1.443 -0.692,-2.982 -2.631,-2.982zm1.32,2.639l-2.99,0l0.01,-0.109c0.061,-0.609 0.459,-1.639 1.568,-1.639c0.4,0 0.727,0.127 0.971,0.377c0.428,0.438 0.447,1.085 0.443,1.273l-0.002,0.098zm-2.766,-0.201l2.566,0c-0.008,-0.235 -0.066,-0.705 -0.385,-1.03c-0.205,-0.211 -0.484,-0.316 -0.828,-0.316c-0.903,0 -1.267,0.801 -1.353,1.346z" fill="#046dac"/>
   </g>
   <g id="svg_20">
    <path id="svg_21" d="m116.794952,10.771c0,0.571 0.025,1.131 0.104,1.521l-1.441,0l-0.117,-0.701l-0.039,0c-0.377,0.494 -1.041,0.845 -1.873,0.845c-1.273,0 -1.988,-0.923 -1.988,-1.886c0,-1.586 1.416,-2.404 3.756,-2.392l0,-0.104c0,-0.416 -0.168,-1.104 -1.287,-1.104c-0.623,0 -1.273,0.194 -1.703,0.468l-0.311,-1.039c0.467,-0.287 1.287,-0.56 2.287,-0.56c2.029,0 2.613,1.287 2.613,2.679l0,2.273l-0.001,0zm-1.56,-1.573c-1.131,-0.013 -2.209,0.221 -2.209,1.184c0,0.623 0.402,0.91 0.91,0.91c0.65,0 1.105,-0.416 1.26,-0.871c0.039,-0.117 0.039,-0.234 0.039,-0.352l0,-0.871z" fill="#046dac"/>
    <path id="svg_22" d="m113.427952,12.536c-1.371,0 -2.088,-1 -2.088,-1.986c0,-1.573 1.367,-2.48 3.756,-2.492l0,-0.004c0,-0.458 -0.205,-1.004 -1.188,-1.004c-0.578,0 -1.211,0.173 -1.648,0.452l-0.111,0.071l-0.373,-1.24l0.066,-0.041c0.588,-0.359 1.463,-0.574 2.34,-0.574c2.242,0 2.713,1.512 2.713,2.779l0,2.274c0,0.659 0.035,1.165 0.102,1.501l0.025,0.12l-1.65,0l-0.102,-0.61c-0.434,0.481 -1.096,0.754 -1.842,0.754zm1.715,-4.278c-2.324,0 -3.604,0.814 -3.604,2.292c0,0.888 0.648,1.785 1.889,1.785c0.748,0 1.402,-0.293 1.793,-0.805l0.029,-0.04l0.174,0l0.117,0.702l1.238,0c-0.057,-0.344 -0.084,-0.82 -0.084,-1.421l0,-2.274c0,-1.177 -0.436,-2.578 -2.514,-2.578c-1.141,0 -1.891,0.348 -2.17,0.505l0.252,0.842c0.461,-0.259 1.078,-0.417 1.645,-0.417c1.252,0 1.387,0.844 1.387,1.205l0,0.205l-0.152,-0.001zm-1.207,3.134c-0.623,0 -1.01,-0.387 -1.01,-1.01c0,-0.852 0.748,-1.284 2.225,-1.284l0.184,0.001l0,0.971c0,0.123 0,0.25 -0.043,0.383c-0.161,0.467 -0.641,0.939 -1.356,0.939zm1.199,-2.094c-1.334,0.002 -2.01,0.367 -2.01,1.084c0,0.73 0.566,0.81 0.811,0.81c0.615,0 1.029,-0.403 1.166,-0.804c0.033,-0.101 0.033,-0.207 0.033,-0.318l0,-0.772z" fill="#046dac"/>
   </g>
   <g id="svg_23">
    <path id="svg_24" d="m118.327952,7.847c0,-0.729 -0.025,-1.34 -0.053,-1.885l1.393,0l0.078,0.948l0.039,0c0.285,-0.493 0.975,-1.092 2.027,-1.092c1.105,0 2.248,0.715 2.248,2.717l0,3.757l-1.598,0l0,-3.574c0,-0.91 -0.338,-1.6 -1.209,-1.6c-0.637,0 -1.08,0.455 -1.248,0.936c-0.053,0.131 -0.078,0.326 -0.078,0.508l0,3.73l-1.6,0l0,-4.445l0.001,0z" fill="#046dac"/>
    <path id="svg_25" d="m124.159952,12.393l-1.797,0l0,-3.675c0,-0.685 -0.193,-1.5 -1.109,-1.5c-0.627,0 -1.014,0.469 -1.154,0.869c-0.045,0.114 -0.072,0.295 -0.072,0.475l0,3.831l-1.799,0l0,-4.546c0,-0.73 -0.027,-1.354 -0.053,-1.881l-0.004,-0.104l1.588,0l0.066,0.806c0.365,-0.488 1.039,-0.949 1.986,-0.949c1.135,0 2.348,0.74 2.348,2.817l0,3.857zm-1.597,-0.201l1.398,0l0,-3.657c0,-2.429 -1.645,-2.616 -2.148,-2.616c-0.986,0 -1.648,0.537 -1.941,1.041l-0.029,0.051l-0.188,0l-0.078,-0.949l-1.196,0c0.023,0.507 0.047,1.099 0.047,1.785l0,4.346l1.4,0l0,-3.631c0,-0.207 0.031,-0.41 0.084,-0.545c0.162,-0.458 0.611,-0.998 1.342,-0.998c0.844,0 1.309,0.604 1.309,1.699l0,3.474z" fill="#046dac"/>
   </g>
   <g id="svg_26">
    <path id="svg_27" d="m72.749952,19.13l1.6,0l0,7.424l3.602,0l0,1.339l-5.201,0l0,-8.763l-0.001,0z" fill="#046dac"/>
    <path id="svg_28" d="m78.050952,27.992l-5.4,0l0,-8.962l1.799,0l0,7.424l3.602,0l0,1.538l-0.001,0zm-5.201,-0.199l5.002,0l0,-1.14l-3.602,0l0,-7.423l-1.4,0l0,8.563z" fill="#046dac"/>
   </g>
   <g id="svg_29">
    <path id="svg_30" d="m79.927952,25.175c0.039,1.145 0.922,1.639 1.949,1.639c0.74,0 1.262,-0.117 1.756,-0.286l0.232,1.093c-0.545,0.233 -1.299,0.402 -2.209,0.402c-2.055,0 -3.264,-1.261 -3.264,-3.197c0,-1.756 1.066,-3.406 3.094,-3.406c2.055,0 2.73,1.689 2.73,3.08c0,0.299 -0.025,0.533 -0.051,0.676l-4.237,0l0,-0.001zm2.781,-1.117c0.014,-0.586 -0.246,-1.547 -1.313,-1.547c-0.988,0 -1.404,0.896 -1.469,1.547l2.782,0z" fill="#046dac"/>
    <path id="svg_31" d="m81.655952,28.122c-2.074,0 -3.363,-1.263 -3.363,-3.297c0,-1.688 1,-3.507 3.193,-3.507c2.09,0 2.83,1.714 2.83,3.181c0,0.343 -0.033,0.581 -0.053,0.693l-0.014,0.082l-4.217,0c0.078,0.903 0.76,1.439 1.844,1.439c0.795,0 1.316,-0.143 1.723,-0.281l0.107,-0.036l0.275,1.284l-0.076,0.032c-0.438,0.187 -1.184,0.41 -2.249,0.41zm-0.17,-6.603c-2.057,0 -2.994,1.714 -2.994,3.307c0,1.91 1.213,3.098 3.164,3.098c0.973,0 1.666,-0.19 2.094,-0.363l-0.191,-0.902c-0.406,0.132 -0.926,0.256 -1.682,0.256c-1.229,0 -2.014,-0.664 -2.049,-1.735l-0.004,-0.103l4.256,0c0.016,-0.117 0.037,-0.315 0.037,-0.576c0,-1.442 -0.691,-2.982 -2.631,-2.982zm1.321,2.638l-2.99,0l0.012,-0.109c0.061,-0.608 0.457,-1.637 1.568,-1.637c0.398,0 0.725,0.126 0.971,0.376c0.426,0.437 0.447,1.085 0.441,1.272l-0.002,0.098zm-2.766,-0.199l2.568,0c-0.008,-0.235 -0.068,-0.706 -0.387,-1.031c-0.205,-0.21 -0.482,-0.316 -0.826,-0.316c-0.904,-0.001 -1.267,0.8 -1.355,1.347z" fill="#046dac"/>
   </g>
   <g id="svg_32">
    <path id="svg_33" d="m91.081952,26.97c0,1.326 -0.273,2.275 -0.936,2.873c-0.65,0.585 -1.574,0.768 -2.445,0.768c-0.805,0 -1.664,-0.183 -2.209,-0.508l0.35,-1.209c0.404,0.234 1.08,0.48 1.848,0.48c1.039,0 1.82,-0.545 1.82,-1.91l0,-0.547l-0.027,0c-0.363,0.56 -1,0.937 -1.846,0.937c-1.572,0 -2.691,-1.3 -2.691,-3.095c0,-2.08 1.352,-3.34 2.873,-3.34c0.975,0 1.535,0.467 1.834,0.987l0.025,0l0.064,-0.845l1.393,0c-0.027,0.429 -0.053,0.949 -0.053,1.82l0,3.589zm-1.599,-2.873c0,-0.156 -0.012,-0.299 -0.051,-0.43c-0.17,-0.584 -0.625,-1.027 -1.301,-1.027c-0.896,0 -1.561,0.781 -1.561,2.068c0,1.078 0.547,1.949 1.547,1.949c0.6,0 1.119,-0.39 1.301,-0.975c0.053,-0.156 0.064,-0.377 0.064,-0.559l0,-1.026l0.001,0z" fill="#046dac"/>
    <path id="svg_34" d="m87.700952,30.71c-0.854,0 -1.721,-0.199 -2.26,-0.521l-0.066,-0.04l0.406,-1.405l0.111,0.063c0.188,0.11 0.875,0.468 1.797,0.468c0.785,0 1.721,-0.314 1.721,-1.811l0,-0.279c-0.42,0.498 -1.039,0.769 -1.773,0.769c-1.617,0 -2.791,-1.343 -2.791,-3.194c0,-2.259 1.496,-3.44 2.973,-3.44c0.932,0 1.473,0.409 1.779,0.823l0.053,-0.68l1.59,0l-0.006,0.105c-0.025,0.414 -0.053,0.929 -0.053,1.814l0,3.588c0,1.415 -0.309,2.352 -0.969,2.947c-0.586,0.526 -1.43,0.793 -2.512,0.793zm-2.091,-0.655c0.516,0.282 1.307,0.456 2.092,0.456c1.031,0 1.83,-0.25 2.379,-0.742c0.615,-0.555 0.902,-1.444 0.902,-2.799l0,-3.588c0,-0.817 0.021,-1.321 0.045,-1.721l-1.191,0l-0.064,0.845l-0.178,0l-0.029,-0.05c-0.244,-0.428 -0.748,-0.938 -1.746,-0.938c-1.377,0 -2.773,1.113 -2.773,3.24c0,1.735 1.09,2.995 2.592,2.995c0.762,0 1.389,-0.316 1.762,-0.892l0.029,-0.045l0.182,0l0,0.646c0,1.296 -0.682,2.01 -1.92,2.01c-0.838,0 -1.494,-0.281 -1.785,-0.433l-0.297,1.016zm2.507,-3.298c-0.984,0 -1.646,-0.823 -1.646,-2.049c0,-1.297 0.668,-2.168 1.66,-2.168c0.666,0 1.199,0.421 1.396,1.1c0.037,0.127 0.055,0.272 0.055,0.457l0,1.027c0,0.253 -0.023,0.451 -0.07,0.591c-0.193,0.622 -0.754,1.042 -1.395,1.042zm0.014,-4.018c-0.873,0 -1.461,0.791 -1.461,1.969c0,1.123 0.568,1.85 1.447,1.85c0.553,0 1.037,-0.364 1.205,-0.904c0.039,-0.119 0.061,-0.302 0.061,-0.529l0,-1.027c0,-0.165 -0.016,-0.292 -0.047,-0.401c-0.174,-0.6 -0.623,-0.958 -1.205,-0.958z" fill="#046dac"/>
   </g>
   <g id="svg_35">
    <path id="svg_36" d="m94.292952,19.794c0,0.467 -0.352,0.857 -0.91,0.857c-0.533,0 -0.885,-0.391 -0.885,-0.857c0,-0.494 0.365,-0.871 0.898,-0.871c0.546,0 0.883,0.377 0.897,0.871zm-1.703,8.099l0,-6.331l1.6,0l0,6.331l-1.6,0z" fill="#046dac"/>
    <path id="svg_37" d="m94.288952,27.992l-1.799,0l0,-6.53l1.799,0l0,6.53zm-1.599,-0.199l1.4,0l0,-6.132l-1.4,0l0,6.132zm0.693,-7.042c-0.561,0 -0.984,-0.412 -0.984,-0.957c0,-0.563 0.42,-0.972 0.998,-0.972c0.57,0 0.98,0.398 0.996,0.968c0,0.559 -0.424,0.961 -1.01,0.961zm0.014,-1.729c-0.471,0 -0.799,0.316 -0.799,0.771c0,0.438 0.33,0.758 0.785,0.758c0.471,0 0.811,-0.319 0.811,-0.758c-0.012,-0.46 -0.334,-0.771 -0.797,-0.771z" fill="#046dac"/>
   </g>
   <g id="svg_38">
    <path id="svg_39" d="m95.696952,26.411c0.35,0.221 1.039,0.467 1.611,0.467c0.703,0 1.014,-0.299 1.014,-0.715c0,-0.429 -0.26,-0.637 -1.039,-0.922c-1.236,-0.416 -1.742,-1.093 -1.742,-1.847c0,-1.118 0.922,-1.976 2.393,-1.976c0.701,0 1.313,0.168 1.689,0.377l-0.324,1.117c-0.262,-0.156 -0.781,-0.363 -1.34,-0.363c-0.572,0 -0.885,0.285 -0.885,0.676c0,0.402 0.299,0.585 1.105,0.884c1.158,0.403 1.678,0.988 1.689,1.925c0,1.156 -0.896,1.988 -2.574,1.988c-0.766,0 -1.455,-0.182 -1.924,-0.441l0.327,-1.17z" fill="#046dac"/>
    <path id="svg_40" d="m97.294952,28.122c-0.732,0 -1.451,-0.165 -1.973,-0.453l-0.068,-0.039l0.383,-1.375l0.113,0.071c0.348,0.219 1.012,0.452 1.559,0.452c0.59,0 0.914,-0.219 0.914,-0.615c0,-0.366 -0.219,-0.552 -0.975,-0.828c-1.494,-0.503 -1.807,-1.333 -1.807,-1.94c0,-1.223 1.023,-2.076 2.492,-2.076c0.646,0 1.297,0.146 1.738,0.39l0.068,0.039l-0.383,1.318l-0.111,-0.066c-0.268,-0.161 -0.766,-0.35 -1.287,-0.35c-0.484,0 -0.785,0.221 -0.785,0.576c0,0.321 0.215,0.484 1.041,0.79c1.199,0.418 1.742,1.04 1.754,2.018c0.001,1.288 -1.023,2.088 -2.673,2.088zm-1.805,-0.592c0.484,0.25 1.137,0.393 1.805,0.393c1.527,0 2.475,-0.724 2.475,-1.889c-0.012,-0.891 -0.498,-1.438 -1.623,-1.83c-0.826,-0.307 -1.172,-0.51 -1.172,-0.979c0,-0.472 0.387,-0.775 0.984,-0.775c0.496,0 0.973,0.158 1.277,0.314l0.268,-0.918c-0.41,-0.207 -0.99,-0.328 -1.57,-0.328c-1.35,0 -2.293,0.771 -2.293,1.876c0,0.777 0.578,1.383 1.674,1.752c0.752,0.274 1.107,0.496 1.107,1.017c0,0.245 -0.107,0.814 -1.113,0.814c-0.527,0 -1.16,-0.203 -1.551,-0.415l-0.268,0.968z" fill="#046dac"/>
   </g>
   <g id="svg_41">
    <path id="svg_42" d="m101.538952,18.662l1.598,0l0,9.23l-1.598,0l0,-9.23z" fill="#046dac"/>
    <path id="svg_43" d="m103.235952,27.992l-1.797,0l0,-9.431l1.797,0l0,9.431zm-1.597,-0.199l1.398,0l0,-9.03l-1.398,0l0,9.03z" fill="#046dac"/>
   </g>
   <g id="svg_44">
    <path id="svg_45" d="m109.749952,25.999c0,0.571 0.025,1.131 0.104,1.521l-1.441,0l-0.117,-0.702l-0.039,0c-0.377,0.494 -1.041,0.846 -1.873,0.846c-1.273,0 -1.988,-0.924 -1.988,-1.886c0,-1.586 1.416,-2.405 3.756,-2.392l0,-0.104c0,-0.416 -0.168,-1.104 -1.287,-1.104c-0.623,0 -1.273,0.195 -1.703,0.468l-0.311,-1.04c0.467,-0.286 1.287,-0.559 2.287,-0.559c2.029,0 2.613,1.287 2.613,2.678l0,2.274l-0.001,0zm-1.56,-1.574c-1.131,-0.012 -2.209,0.222 -2.209,1.184c0,0.624 0.402,0.91 0.91,0.91c0.65,0 1.105,-0.416 1.26,-0.871c0.039,-0.117 0.039,-0.234 0.039,-0.352l0,-0.871z" fill="#046dac"/>
    <path id="svg_46" d="m106.382952,27.763c-1.371,0 -2.088,-0.999 -2.088,-1.985c0,-1.574 1.367,-2.481 3.756,-2.491l0,-0.005c0,-0.458 -0.205,-1.005 -1.188,-1.005c-0.576,0 -1.209,0.174 -1.648,0.452l-0.111,0.071l-0.373,-1.24l0.066,-0.04c0.588,-0.36 1.463,-0.574 2.34,-0.574c2.242,0 2.713,1.511 2.713,2.778l0,2.275c0,0.66 0.035,1.165 0.102,1.501l0.025,0.119l-1.65,0l-0.102,-0.609c-0.436,0.48 -1.096,0.753 -1.842,0.753zm1.711,-4.278c-2.322,0 -3.6,0.814 -3.6,2.292c0,0.888 0.648,1.786 1.889,1.786c0.748,0 1.402,-0.294 1.793,-0.807l0.029,-0.039l0.174,0l0.117,0.702l1.238,0c-0.057,-0.344 -0.084,-0.821 -0.084,-1.421l0,-2.275c0,-1.176 -0.436,-2.578 -2.514,-2.578c-1.141,0 -1.891,0.349 -2.17,0.506l0.252,0.842c0.463,-0.259 1.078,-0.416 1.645,-0.416c1.252,0 1.387,0.842 1.387,1.204l0,0.205l-0.156,-0.001zm-1.203,3.133c-0.623,0 -1.01,-0.387 -1.01,-1.01c0,-0.852 0.75,-1.284 2.23,-1.284l0.178,0.002l0,0.97c0,0.123 0,0.251 -0.043,0.383c-0.16,0.468 -0.64,0.939 -1.355,0.939zm1.199,-2.094c-1.334,0.004 -2.01,0.368 -2.01,1.084c0,0.731 0.566,0.811 0.811,0.811c0.615,0 1.029,-0.404 1.166,-0.804c0.033,-0.102 0.033,-0.207 0.033,-0.319l0,-0.772z" fill="#046dac"/>
   </g>
   <g id="svg_47">
    <path id="svg_48" d="m113.882952,19.798l0,1.656l1.52,0l0,1.218l-1.52,0l0,2.848c0,0.796 0.207,1.193 0.818,1.193c0.285,0 0.441,-0.014 0.623,-0.067l0.027,1.232c-0.234,0.094 -0.664,0.173 -1.158,0.173c-0.598,0 -1.078,-0.199 -1.377,-0.53c-0.352,-0.371 -0.508,-0.967 -0.508,-1.814l0,-3.034l-0.896,0l0,-1.218l0.896,0l0,-1.205l1.575,-0.452z" fill="#046dac"/>
    <path id="svg_49" d="m114.193952,28.152c-0.607,0 -1.123,-0.2 -1.451,-0.563c-0.363,-0.384 -0.533,-0.982 -0.533,-1.883l0,-2.933l-0.896,0l0,-1.421l0.896,0l0,-1.182l1.773,-0.508l0,1.689l1.52,0l0,1.421l-1.52,0l0,2.746c0,0.785 0.201,1.092 0.719,1.092c0.295,0 0.434,-0.016 0.596,-0.063l0.125,-0.038l0.031,1.436l-0.066,0.026c-0.218,0.089 -0.648,0.181 -1.194,0.181zm-2.682,-5.582l0.896,0l0,3.136c0,0.832 0.158,1.402 0.48,1.744c0.291,0.322 0.754,0.499 1.305,0.499c0.467,0 0.846,-0.072 1.057,-0.144l-0.023,-1.03c-0.154,0.032 -0.311,0.039 -0.525,0.039c-0.814,0 -0.918,-0.692 -0.918,-1.295l0,-2.949l1.52,0l0,-1.015l-1.52,0l0,-1.623l-1.375,0.393l0,1.23l-0.896,0l0,1.015l-0.001,0z" fill="#046dac"/>
   </g>
   <g id="svg_50">
    <path id="svg_51" d="m118.232952,19.663c0,0.469 -0.352,0.858 -0.91,0.858c-0.533,0 -0.885,-0.39 -0.885,-0.858c0,-0.494 0.365,-0.871 0.898,-0.871c0.545,0 0.883,0.377 0.897,0.871zm-1.704,8.1l0,-6.331l1.6,0l0,6.331l-1.6,0z" fill="#046dac"/>
    <path id="svg_52" d="m118.228952,27.862l-1.799,0l0,-6.53l1.799,0l0,6.53zm-1.6,-0.199l1.4,0l0,-6.132l-1.4,0l0,6.132zm0.693,-7.041c-0.561,0 -0.984,-0.412 -0.984,-0.959c0,-0.563 0.42,-0.971 0.998,-0.971c0.57,0 0.98,0.398 0.996,0.969c0,0.558 -0.424,0.961 -1.01,0.961zm0.014,-1.729c-0.471,0 -0.799,0.317 -0.799,0.771c0,0.439 0.33,0.758 0.785,0.758c0.471,0 0.811,-0.318 0.811,-0.758c-0.012,-0.46 -0.334,-0.771 -0.797,-0.771z" fill="#046dac"/>
   </g>
   <g id="svg_53">
    <path id="svg_54" d="m125.226952,24.669c0,2.326 -1.639,3.367 -3.25,3.367c-1.781,0 -3.172,-1.223 -3.172,-3.264c0,-2.08 1.365,-3.354 3.275,-3.354c1.885,0.001 3.147,1.327 3.147,3.251zm-4.772,0.064c0,1.223 0.611,2.145 1.572,2.145c0.91,0 1.549,-0.883 1.549,-2.17c0,-0.988 -0.443,-2.133 -1.535,-2.133c-1.131,0 -1.586,1.106 -1.586,2.158z" fill="#046dac"/>
    <path id="svg_55" d="m121.976952,28.136c-1.928,0 -3.271,-1.383 -3.271,-3.363c0,-2.066 1.355,-3.454 3.375,-3.454c1.941,0 3.246,1.347 3.246,3.351c-0.001,2.394 -1.684,3.466 -3.35,3.466zm0.103,-6.617c-1.93,0 -3.176,1.277 -3.176,3.254c0,1.893 1.234,3.164 3.072,3.164c1.568,0 3.15,-1.011 3.15,-3.268c0.001,-1.885 -1.224,-3.15 -3.046,-3.15zm-0.053,5.459c-0.984,0 -1.672,-0.923 -1.672,-2.244c0,-1.042 0.441,-2.258 1.686,-2.258c1.123,0 1.635,1.157 1.635,2.232c0,1.337 -0.678,2.27 -1.649,2.27zm0.014,-4.303c-1.096,0 -1.486,1.109 -1.486,2.059c0,1.204 0.605,2.045 1.473,2.045c0.854,0 1.449,-0.852 1.449,-2.07c0,-0.756 -0.303,-2.034 -1.436,-2.034z" fill="#046dac"/>
   </g>
   <g id="svg_56">
    <path id="svg_57" d="m126.753952,23.446c0,-0.729 -0.027,-1.339 -0.053,-1.885l1.391,0l0.078,0.949l0.039,0c0.287,-0.494 0.975,-1.092 2.027,-1.092c1.105,0 2.25,0.715 2.25,2.717l0,3.757l-1.6,0l0,-3.575c0,-0.91 -0.338,-1.6 -1.209,-1.6c-0.637,0 -1.078,0.455 -1.248,0.937c-0.051,0.13 -0.078,0.325 -0.078,0.507l0,3.731l-1.598,0l0,-4.446l0.001,0z" fill="#046dac"/>
    <path id="svg_58" d="m132.585952,27.992l-1.799,0l0,-3.675c0,-0.685 -0.191,-1.5 -1.109,-1.5c-0.625,0 -1.012,0.469 -1.152,0.87c-0.047,0.113 -0.074,0.294 -0.074,0.474l0,3.831l-1.797,0l0,-4.546c0,-0.729 -0.027,-1.329 -0.053,-1.88l-0.006,-0.104l1.588,0l0.066,0.806c0.365,-0.488 1.041,-0.949 1.986,-0.949c1.137,0 2.35,0.74 2.35,2.817l0,3.856zm-1.6,-0.199l1.4,0l0,-3.657c0,-2.429 -1.646,-2.617 -2.15,-2.617c-0.986,0 -1.648,0.538 -1.939,1.042l-0.029,0.05l-0.189,0l-0.078,-0.949l-1.195,0c0.025,0.507 0.049,1.1 0.049,1.785l0,4.347l1.398,0l0,-3.632c0,-0.207 0.031,-0.41 0.086,-0.544c0.16,-0.459 0.609,-0.999 1.34,-0.999c0.844,0 1.309,0.604 1.309,1.699l0,3.475l-0.002,0z" fill="#046dac"/>
   </g>
   <g id="svg_59">
    <path id="svg_60" d="m74.349952,34.125l0,8.763l-1.6,0l0,-8.763l1.6,0z" fill="#046dac"/>
    <path id="svg_61" d="m74.448952,42.987l-1.798,0l0,-8.962l1.799,0l0,8.962l-0.001,0zm-1.599,-0.199l1.4,0l0,-8.563l-1.4,0l0,8.563z" fill="#046dac"/>
   </g>
   <g id="svg_62">
    <path id="svg_63" d="m81.798952,33.515l0,7.449c0,0.65 0.025,1.352 0.051,1.781l-1.416,0l-0.078,-1.002l-0.025,0c-0.377,0.703 -1.145,1.145 -2.055,1.145c-1.521,0 -2.717,-1.287 -2.717,-3.236c-0.014,-2.119 1.313,-3.381 2.834,-3.381c0.871,0 1.494,0.352 1.781,0.818l0.025,0l0,-3.574l1.6,0zm-1.6,5.537c0,-0.129 -0.014,-0.299 -0.039,-0.428c-0.143,-0.611 -0.65,-1.119 -1.379,-1.119c-1.025,0 -1.598,0.91 -1.598,2.08s0.572,2.016 1.586,2.016c0.65,0 1.221,-0.441 1.377,-1.131c0.039,-0.143 0.053,-0.299 0.053,-0.469l0,-0.949z" fill="#046dac"/>
    <path id="svg_64" d="m78.275952,42.987c-1.633,0 -2.816,-1.402 -2.816,-3.336c-0.008,-1.08 0.338,-2.025 0.971,-2.662c0.525,-0.528 1.223,-0.818 1.963,-0.818c0.721,0 1.338,0.24 1.707,0.653l0,-3.409l1.799,0l0,7.549c0,0.666 0.027,1.373 0.051,1.775l0.008,0.105l-1.617,0l-0.064,-0.825c-0.434,0.611 -1.163,0.968 -2.002,0.968zm0.117,-6.617c-0.688,0 -1.334,0.271 -1.82,0.761c-0.596,0.599 -0.92,1.493 -0.914,2.52c0,1.818 1.1,3.138 2.617,3.138c0.865,0 1.6,-0.408 1.967,-1.092l0.027,-0.053l0.178,0l0.078,1.002l1.219,0c-0.021,-0.416 -0.045,-1.066 -0.045,-1.682l0,-7.35l-1.4,0l0,3.574l-0.182,0l-0.029,-0.047c-0.296,-0.483 -0.931,-0.771 -1.696,-0.771zm0.377,5.33c-1.025,0 -1.686,-0.83 -1.686,-2.115c0,-1.304 0.682,-2.18 1.697,-2.18c0.826,0 1.338,0.601 1.477,1.196c0.025,0.13 0.041,0.305 0.041,0.45l0,0.949c0,0.197 -0.018,0.355 -0.055,0.495c-0.164,0.72 -0.756,1.205 -1.474,1.205zm0.011,-4.096c-0.91,0 -1.498,0.777 -1.498,1.98c0,1.182 0.568,1.916 1.486,1.916c0.623,0 1.137,-0.424 1.279,-1.054c0.035,-0.126 0.051,-0.267 0.051,-0.446l0,-0.949c0,-0.134 -0.014,-0.294 -0.037,-0.408c-0.12,-0.515 -0.564,-1.039 -1.281,-1.039z" fill="#046dac"/>
   </g>
   <g id="svg_65">
    <path id="svg_66" d="m84.489952,40.042c0.039,1.143 0.922,1.637 1.949,1.637c0.74,0 1.262,-0.117 1.756,-0.285l0.232,1.092c-0.545,0.234 -1.299,0.402 -2.209,0.402c-2.055,0 -3.264,-1.26 -3.264,-3.197c0,-1.756 1.066,-3.406 3.094,-3.406c2.055,0 2.73,1.689 2.73,3.08c0,0.301 -0.025,0.533 -0.051,0.678l-4.237,0l0,-0.001zm2.782,-1.119c0.014,-0.584 -0.246,-1.547 -1.313,-1.547c-0.988,0 -1.404,0.896 -1.469,1.547l2.782,0z" fill="#046dac"/>
    <path id="svg_67" d="m86.218952,42.987c-2.074,0 -3.363,-1.263 -3.363,-3.297c0,-1.688 1,-3.506 3.193,-3.506c2.09,0 2.83,1.713 2.83,3.18c0,0.341 -0.033,0.582 -0.053,0.695l-0.014,0.082l-4.217,0c0.078,0.902 0.76,1.438 1.844,1.438c0.793,0 1.316,-0.142 1.723,-0.28l0.107,-0.036l0.273,1.282l-0.076,0.032c-0.435,0.188 -1.179,0.41 -2.247,0.41zm-0.17,-6.603c-2.057,0 -2.994,1.714 -2.994,3.307c0,1.91 1.213,3.098 3.164,3.098c0.975,0 1.668,-0.19 2.094,-0.363l-0.191,-0.901c-0.408,0.132 -0.928,0.255 -1.682,0.255c-1.227,0 -2.014,-0.664 -2.049,-1.733l-0.004,-0.103l4.256,0c0.018,-0.124 0.037,-0.32 0.037,-0.578c0,-1.442 -0.692,-2.982 -2.631,-2.982zm1.32,2.638l-2.99,0l0.012,-0.109c0.061,-0.608 0.457,-1.637 1.568,-1.637c0.398,0 0.725,0.126 0.969,0.376c0.428,0.438 0.449,1.085 0.443,1.272l-0.002,0.098zm-2.765,-0.199l2.568,0c-0.008,-0.235 -0.068,-0.705 -0.387,-1.03c-0.205,-0.211 -0.482,-0.317 -0.826,-0.317c-0.904,0 -1.267,0.8 -1.355,1.347z" fill="#046dac"/>
   </g>
   <g id="svg_68">
    <path id="svg_69" d="m90.157952,38.44c0,-0.727 -0.027,-1.338 -0.053,-1.885l1.391,0l0.078,0.949l0.039,0c0.287,-0.494 0.975,-1.092 2.027,-1.092c1.105,0 2.25,0.715 2.25,2.717l0,3.758l-1.6,0l0,-3.576c0,-0.91 -0.338,-1.598 -1.209,-1.598c-0.637,0 -1.078,0.455 -1.248,0.936c-0.051,0.129 -0.078,0.324 -0.078,0.506l0,3.732l-1.598,0l0,-4.447l0.001,0z" fill="#046dac"/>
    <path id="svg_70" d="m95.989952,42.987l-1.799,0l0,-3.676c0,-0.684 -0.191,-1.498 -1.109,-1.498c-0.625,0 -1.012,0.469 -1.152,0.869c-0.047,0.113 -0.074,0.293 -0.074,0.473l0,3.832l-1.797,0l0,-4.547c0,-0.728 -0.027,-1.352 -0.053,-1.88l-0.006,-0.104l1.588,0l0.066,0.806c0.365,-0.488 1.041,-0.948 1.986,-0.948c1.137,0 2.35,0.739 2.35,2.816l0,3.857zm-1.599,-0.199l1.4,0l0,-3.658c0,-2.428 -1.646,-2.617 -2.15,-2.617c-0.986,0 -1.648,0.539 -1.939,1.042l-0.029,0.05l-0.189,0l-0.078,-0.949l-1.195,0c0.025,0.508 0.049,1.101 0.049,1.785l0,4.348l1.398,0l0,-3.633c0,-0.207 0.031,-0.41 0.086,-0.543c0.16,-0.458 0.609,-0.998 1.34,-0.998c0.844,0 1.309,0.603 1.309,1.697l0,3.476l-0.002,0z" fill="#046dac"/>
   </g>
   <g id="svg_71">
    <path id="svg_72" d="m99.392952,34.788l0,1.625l1.521,0l0,1.197l-1.521,0l0,2.795c0,0.779 0.209,1.17 0.818,1.17c0.287,0 0.443,-0.014 0.625,-0.066l0.025,1.209c-0.234,0.092 -0.662,0.17 -1.156,0.17c-0.598,0 -1.08,-0.195 -1.379,-0.52c-0.35,-0.365 -0.506,-0.949 -0.506,-1.781l0,-2.977l-0.898,0l0,-1.197l0.898,0l0,-1.183l1.573,-0.442z" fill="#046dac"/>
    <path id="svg_73" d="m99.704952,42.987c-0.609,0 -1.123,-0.195 -1.451,-0.552c-0.363,-0.378 -0.533,-0.966 -0.533,-1.849l0,-2.876l-0.898,0l0,-1.396l0.898,0l0,-1.159l1.771,-0.498l0,1.657l1.521,0l0,1.396l-1.521,0l0,2.695c0,0.77 0.203,1.07 0.719,1.07c0.293,0 0.432,-0.015 0.596,-0.063l0.125,-0.037l0.031,1.409l-0.064,0.025c-0.219,0.087 -0.647,0.178 -1.194,0.178zm-2.683,-5.476l0.898,0l0,3.076c0,0.816 0.156,1.376 0.479,1.712c0.291,0.315 0.754,0.489 1.307,0.489c0.467,0 0.844,-0.071 1.055,-0.141l-0.021,-1.012c-0.156,0.032 -0.313,0.039 -0.527,0.039c-0.814,0 -0.918,-0.679 -0.918,-1.27l0,-2.895l1.521,0l0,-0.998l-1.521,0l0,-1.591l-1.373,0.387l0,1.206l-0.898,0l0,0.998l-0.002,0z" fill="#046dac"/>
   </g>
   <g id="svg_74">
    <path id="svg_75" d="m111.745952,34.788c0,0.468 -0.352,0.857 -0.91,0.857c-0.533,0 -0.885,-0.39 -0.885,-0.857c0,-0.494 0.365,-0.871 0.898,-0.871c0.546,0 0.884,0.377 0.897,0.871zm-1.703,8.1l0,-6.332l1.6,0l0,6.332l-1.6,0z" fill="#046dac"/>
    <path id="svg_76" d="m111.741952,42.987l-1.799,0l0,-6.531l1.799,0l0,6.531zm-1.599,-0.199l1.4,0l0,-6.133l-1.4,0l0,6.133zm0.693,-7.043c-0.561,0 -0.984,-0.411 -0.984,-0.957c0,-0.563 0.42,-0.971 0.998,-0.971c0.57,0 0.98,0.397 0.996,0.968c0,0.558 -0.424,0.96 -1.01,0.96zm0.014,-1.728c-0.471,0 -0.799,0.317 -0.799,0.771c0,0.438 0.33,0.758 0.785,0.758c0.471,0 0.811,-0.319 0.811,-0.758c-0.012,-0.46 -0.334,-0.771 -0.797,-0.771z" fill="#046dac"/>
   </g>
   <g id="svg_77">
    <path id="svg_78" d="m103.433952,34.788c0,0.468 -0.352,0.857 -0.91,0.857c-0.533,0 -0.885,-0.39 -0.885,-0.857c0,-0.494 0.363,-0.871 0.896,-0.871c0.547,0 0.885,0.377 0.899,0.871zm-1.703,8.1l0,-6.332l1.598,0l0,6.332l-1.598,0z" fill="#046dac"/>
    <path id="svg_79" d="m103.427952,42.987l-1.797,0l0,-6.531l1.797,0l0,6.531zm-1.598,-0.199l1.398,0l0,-6.133l-1.398,0l0,6.133zm0.694,-7.043c-0.563,0 -0.984,-0.411 -0.984,-0.957c0,-0.563 0.418,-0.971 0.996,-0.971c0.572,0 0.982,0.397 0.998,0.968c-0.001,0.558 -0.426,0.96 -1.01,0.96zm0.011,-1.728c-0.469,0 -0.797,0.317 -0.797,0.771c0,0.438 0.33,0.758 0.785,0.758c0.469,0 0.811,-0.319 0.811,-0.758c-0.014,-0.46 -0.334,-0.771 -0.799,-0.771z" fill="#046dac"/>
   </g>
   <g id="svg_80">
    <path id="svg_81" d="m115.060952,40.042c0.039,1.143 0.922,1.637 1.949,1.637c0.742,0 1.262,-0.117 1.756,-0.285l0.234,1.092c-0.547,0.234 -1.301,0.402 -2.211,0.402c-2.055,0 -3.264,-1.26 -3.264,-3.197c0,-1.756 1.066,-3.406 3.094,-3.406c2.055,0 2.73,1.689 2.73,3.08c0,0.301 -0.025,0.533 -0.051,0.678l-4.237,0l0,-0.001zm2.781,-1.119c0.014,-0.584 -0.246,-1.547 -1.313,-1.547c-0.988,0 -1.404,0.896 -1.469,1.547l2.782,0z" fill="#046dac"/>
    <path id="svg_82" d="m116.788952,42.987c-2.074,0 -3.363,-1.263 -3.363,-3.297c0,-1.688 1,-3.506 3.193,-3.506c2.09,0 2.83,1.713 2.83,3.18c0,0.341 -0.033,0.582 -0.053,0.695l-0.014,0.082l-4.217,0c0.078,0.902 0.76,1.438 1.844,1.438c0.793,0 1.316,-0.142 1.723,-0.28l0.107,-0.036l0.275,1.282l-0.076,0.032c-0.436,0.188 -1.18,0.41 -2.249,0.41zm-0.17,-6.603c-2.057,0 -2.994,1.714 -2.994,3.307c0,1.91 1.213,3.098 3.164,3.098c0.975,0 1.668,-0.19 2.096,-0.363l-0.193,-0.901c-0.408,0.132 -0.928,0.255 -1.682,0.255c-1.227,0 -2.014,-0.664 -2.049,-1.733l-0.004,-0.103l4.256,0c0.018,-0.124 0.037,-0.32 0.037,-0.578c0,-1.442 -0.691,-2.982 -2.631,-2.982zm1.321,2.638l-2.99,0l0.012,-0.109c0.061,-0.608 0.457,-1.637 1.568,-1.637c0.398,0 0.725,0.126 0.969,0.376c0.428,0.438 0.449,1.085 0.443,1.272l-0.002,0.098zm-2.766,-0.199l2.568,0c-0.008,-0.235 -0.068,-0.705 -0.387,-1.03c-0.205,-0.211 -0.482,-0.317 -0.826,-0.317c-0.904,0 -1.267,0.8 -1.355,1.347z" fill="#046dac"/>
   </g>
   <g id="svg_83">
    <path id="svg_84" d="m120.511952,38.532c0,-0.857 -0.014,-1.482 -0.053,-2.041l1.379,0l0.064,1.197l0.039,0c0.313,-0.885 1.053,-1.34 1.742,-1.34c0.156,0 0.248,0.013 0.377,0.039l0,1.494c-0.143,-0.025 -0.285,-0.039 -0.48,-0.039c-0.754,0 -1.287,0.482 -1.43,1.209c-0.027,0.145 -0.039,0.313 -0.039,0.482l0,3.289l-1.6,0l0,-4.29l0.001,0z" fill="#046dac"/>
    <path id="svg_85" d="m122.210952,42.923l-1.799,0l0,-4.391c0,-0.899 -0.016,-1.508 -0.053,-2.034l-0.008,-0.106l1.58,0l0.053,0.949c0.352,-0.673 0.99,-1.092 1.699,-1.092c0.164,0 0.264,0.014 0.396,0.041l0.08,0.016l0,1.695l-0.117,-0.021c-0.148,-0.026 -0.287,-0.038 -0.463,-0.038c-0.686,0 -1.195,0.433 -1.332,1.129c-0.023,0.133 -0.037,0.293 -0.037,0.463l0,3.389l0.001,0zm-1.6,-0.199l1.4,0l0,-3.189c0,-0.182 0.014,-0.354 0.039,-0.5c0.156,-0.797 0.742,-1.291 1.529,-1.291c0.143,0 0.262,0.007 0.381,0.022l0,-1.295c-0.086,-0.015 -0.162,-0.022 -0.277,-0.022c-0.553,0 -1.316,0.334 -1.646,1.273l-0.023,0.066l-0.205,0l-0.066,-1.197l-1.176,0c0.031,0.507 0.045,1.097 0.045,1.941l0,4.192l-0.001,0z" fill="#046dac"/>
   </g>
  </g>
  <g stroke="null" id="svg_86">
   <path stroke="#FFFFFF" id="svg_87" d="m105.538196,43.126095l0,-5.135l-1.023434,0l0,-1.196l1.023434,0l0,-0.273c0,-0.818 0.263919,-1.638 0.917149,-2.158c0.560082,-0.441 1.304072,-0.61 1.970438,-0.61c0.513508,0 0.917149,0.078 1.213312,0.155l-0.125392,1.235c-0.217345,-0.064 -0.464546,-0.117 -0.822807,-0.117c-0.947004,0 -1.257498,0.663 -1.257498,1.443l0,0.325l1.646808,0l0,1.196l-1.63009,0l0,5.135l-1.911922,0z" stroke-miterlimit="10" stroke-width="0.2" fill="#046dac"/>
  </g>
  <rect id="svg_88" height="27.867" width="9.5" fill="#046dac" y="14.967" x="53.167"/>
  <polygon id="svg_89" points="47.093,34.887 47.093,42.687 27.5,42.687 27.5,1.167 37.33,1.167 37.33,34.887 " fill="#046dac"/>
  <polygon id="svg_90" points="9.67,9.117 9.67,17.817 20.25,17.817 20.25,25.767 9.67,25.767 9.67,34.887 20.92,34.887   20.92,42.837 0,42.837 0,1.167 20.92,1.167 20.92,9.117 " fill="#046dac"/>
  <circle id="svg_91" r="6.742" cy="6.743" cx="58.105" fill="#F7B040"/>
  <image id="svg_92" transform="matrix(1,0,0,1,512.7598,-358.333) " xlink:href="AFB56D77.jpg" height="1080" width="3840"/>
 </g>
</svg>