<?xml version="1.0" encoding="UTF-8" standalone="no"?>
<!-- Created with Inkscape (http://www.inkscape.org/) -->

<svg
   xmlns:dc="http://purl.org/dc/elements/1.1/"
   xmlns:cc="http://creativecommons.org/ns#"
   xmlns:rdf="http://www.w3.org/1999/02/22-rdf-syntax-ns#"
   xmlns:svg="http://www.w3.org/2000/svg"
   xmlns="http://www.w3.org/2000/svg"
   xmlns:sodipodi="http://sodipodi.sourceforge.net/DTD/sodipodi-0.dtd"
   xmlns:inkscape="http://www.inkscape.org/namespaces/inkscape"
   width="317.5mm"
   height="317.5mm"
   viewBox="0 0 317.5 317.5"
   version="1.1"
   id="svg8"
   inkscape:version="0.92.4 (5da689c313, 2019-01-14)"
   sodipodi:docname="ABC PRO Icon Logotype 2021 white text.svg">
  <defs
     id="defs2" />
  <sodipodi:namedview
     id="base"
     pagecolor="#ffffff"
     bordercolor="#666666"
     borderopacity="1.0"
     inkscape:pageopacity="0.0"
     inkscape:pageshadow="2"
     inkscape:zoom="0.35"
     inkscape:cx="782.67469"
     inkscape:cy="14.492522"
     inkscape:document-units="mm"
     inkscape:current-layer="layer1"
     showgrid="false"
     inkscape:window-width="2560"
     inkscape:window-height="1377"
     inkscape:window-x="2552"
     inkscape:window-y="-8"
     inkscape:window-maximized="1" />
  <metadata
     id="metadata5">
    <rdf:RDF>
      <cc:Work
         rdf:about="">
        <dc:format>image/svg+xml</dc:format>
        <dc:type
           rdf:resource="http://purl.org/dc/dcmitype/StillImage" />
        <dc:title />
      </cc:Work>
    </rdf:RDF>
  </metadata>
  <g
     inkscape:label="Layer 1"
     inkscape:groupmode="layer"
     id="layer1"
     transform="translate(21.781,8.937068)">
    <path
       style="opacity:0.98999999;vector-effect:none;fill:#dc3a39;fill-opacity:1;stroke:#b70000;stroke-width:0.00094193;stroke-linecap:butt;stroke-linejoin:miter;stroke-miterlimit:4;stroke-dasharray:none;stroke-dashoffset:0;stroke-opacity:1"
       d="M 17.47422,126.15112 C 171.27181,35.63884 171.78157,36.605115 171.78895,36.616188 L 83.071424,126.28556 v 0 0 z"
       id="path818"
       inkscape:connector-curvature="0"
       sodipodi:nodetypes="cccccc" />
    <path
       style="opacity:0.98999999;vector-effect:none;fill:#e05e55;fill-opacity:1;stroke:#b70000;stroke-width:0.00093637;stroke-linecap:butt;stroke-linejoin:miter;stroke-miterlimit:4;stroke-dasharray:none;stroke-dashoffset:0;stroke-opacity:1"
       d="m 138.71435,3.2074966 c 33.0746,33.4086914 33.0746,33.4086914 33.0746,33.4086914 L 17.474221,126.15112 Z"
       id="path820"
       inkscape:connector-curvature="0" />
    <path
       style="opacity:0.98999999;vector-effect:none;fill:#dc3a39;fill-opacity:1;stroke:#b70000;stroke-width:0.00093637;stroke-linecap:butt;stroke-linejoin:miter;stroke-miterlimit:4;stroke-dasharray:none;stroke-dashoffset:0;stroke-opacity:1"
       d="M 120.27275,164.37102 87.532235,197.64607 17.474221,126.15112 Z"
       id="path822"
       inkscape:connector-curvature="0" />
    <path
       style="opacity:0.98999999;vector-effect:none;fill:#e05e55;fill-opacity:1;stroke:#b70000;stroke-width:0.00093637;stroke-linecap:butt;stroke-linejoin:miter;stroke-miterlimit:4;stroke-dasharray:none;stroke-dashoffset:0;stroke-opacity:1"
       d="M 120.27275,164.37102 83.071424,126.28556 17.474221,126.15112 Z"
       id="path824"
       inkscape:connector-curvature="0" />
    <path
       style="opacity:0.98999999;vector-effect:none;fill:#4470b1;fill-opacity:1;stroke:#b70000;stroke-width:0.00093637;stroke-linecap:butt;stroke-linejoin:miter;stroke-miterlimit:4;stroke-dasharray:none;stroke-dashoffset:0;stroke-opacity:1"
       d="m 108.4318,217.51792 33.16741,33.35639 121.66107,-122.60602 z"
       id="path826"
       inkscape:connector-curvature="0" />
    <path
       style="opacity:0.98999999;vector-effect:none;fill:#4470b1;fill-opacity:1;stroke:#b70000;stroke-width:0.00093354;stroke-linecap:butt;stroke-linejoin:miter;stroke-miterlimit:4;stroke-dasharray:none;stroke-dashoffset:0;stroke-opacity:1"
       d="m 159.56137,89.86964 c 42.8446,3.342117 69.22147,25.64355 103.69891,38.39872 l -66.17743,0.0212 -37.52148,-38.41995"
       id="path828"
       inkscape:connector-curvature="0"
       sodipodi:nodetypes="cccc" />
    <path
       style="opacity:0.98999999;vector-effect:none;fill:#6385bf;fill-opacity:1;stroke:#b70000;stroke-width:0.00093637;stroke-linecap:butt;stroke-linejoin:miter;stroke-miterlimit:4;stroke-dasharray:none;stroke-dashoffset:0;stroke-opacity:1"
       d="m 192.23507,56.594585 71.02521,71.673705 C 228.74849,115.76858 194.19869,103.05977 159.56137,89.86964 Z"
       id="path830"
       inkscape:connector-curvature="0"
       sodipodi:nodetypes="cccc" />
    <path
       style="opacity:0.98999999;vector-effect:none;fill:#6385bf;fill-opacity:1;stroke:#b70000;stroke-width:0.00093637;stroke-linecap:butt;stroke-linejoin:miter;stroke-miterlimit:4;stroke-dasharray:none;stroke-dashoffset:0;stroke-opacity:1"
       d="m 108.4318,217.51792 88.48049,-89.22833 c 23.87307,-0.47221 45.48596,-0.34613 66.34799,-0.0213 z"
       id="path832"
       inkscape:connector-curvature="0"
       sodipodi:nodetypes="cccc" />
    <path
       style="opacity:0.98999999;vector-effect:none;fill:#000000;fill-opacity:0.06030151;stroke:#b70000;stroke-width:0.00093637;stroke-linecap:butt;stroke-linejoin:miter;stroke-miterlimit:4;stroke-dasharray:none;stroke-dashoffset:0;stroke-opacity:1"
       d="M 159.56137,89.86964 108.4318,217.51792 197.08285,128.28956 Z"
       id="path834"
       inkscape:connector-curvature="0"
       sodipodi:nodetypes="cccc" />
    <path
       inkscape:connector-curvature="0"
       d="m 16.950601,281.5322 -0.154113,-3.10136 H 9.7011897 L 8.1778029,281.5322 H 3.5400747 L 13.778761,260.68944 h 6.533956 l 1.245974,20.84276 z m -5.379859,-6.87751 h 5.041989 l -0.407816,-9.27051 -4.634173,9.27109 z m 30.523411,2.42185 c -0.207455,0.95979 -0.444568,1.72763 -0.713678,2.30408 -0.271485,0.57411 -0.636622,1.02103 -1.091859,1.3543 -0.452867,0.32857 -1.028433,0.54055 -1.729073,0.64183 -0.692338,0.10237 -1.568432,0.15556 -2.628875,0.15556 H 24.016262 l 3.172433,-14.94681 h 4.541701 l -0.557191,2.57436 h 5.72425 c 0.533481,0 0.972123,-0.0236 1.304064,-0.0741 0.326017,-0.053 0.592757,-0.15312 0.788367,-0.31209 0.195604,-0.15311 0.349727,-0.37096 0.46235,-0.6536 0.118559,-0.28854 0.225248,-0.66538 0.331945,-1.13645 l 0.118558,-0.39451 c 0.06519,-0.22375 0.08298,-0.42983 0.06519,-0.62414 -0.01769,-0.19429 0,-0.38274 0.06519,-0.56528 0,-0.41218 -0.148198,-0.67127 -0.438641,-0.79492 -0.296379,-0.12374 -0.853569,-0.18249 -1.683429,-0.18249 H 27.680078 l 0.800222,-3.78029 h 11.920335 c 0.853569,0 1.564878,0.0294 2.14578,0.10594 0.5809,0.0705 1.055106,0.20007 1.416687,0.37684 0.361583,0.1885 0.622394,0.43573 0.776511,0.75371 0.160051,0.32385 0.237102,0.72424 0.237102,1.21298 0,0.55938 -0.100773,1.20708 -0.308232,1.97256 l -0.746873,3.40343 c -0.308233,1.39554 -0.972122,2.24932 -1.991663,2.54963 0.681671,0.22965 1.031397,0.81847 1.031397,1.77826 0,0.30621 -0.04743,0.57117 -0.13041,0.80082 l -0.746874,3.43874 z m -4.012962,-1.95845 c 0.06105,-0.22963 0.09307,-0.43337 0.09307,-0.6318 0,-0.1885 0.01075,-0.37097 0.03202,-0.52995 0,-0.40629 -0.147011,-0.67716 -0.436862,-0.81258 -0.293414,-0.12952 -0.852384,-0.19428 -1.677502,-0.19428 h -5.727218 l -1.02784,4.81661 h 5.721287 c 0.564304,0 0.998795,-0.0111 1.309992,-0.0412 0.314161,-0.0294 0.561933,-0.11773 0.745689,-0.26497 0.189689,-0.13553 0.337869,-0.3533 0.452864,-0.64181 0.116766,-0.28264 0.244808,-0.69482 0.388255,-1.22478 l 0.125661,-0.45927 z m 23.80155,6.41411 H 49.563479 c -0.852386,0 -1.56073,-0.0354 -2.136296,-0.10593 -0.567267,-0.0741 -1.02784,-0.2043 -1.379937,-0.38392 -0.356838,-0.1885 -0.606982,-0.43339 -0.764656,-0.74781 -0.157071,-0.32092 -0.234733,-0.72838 -0.234733,-1.2177 0,-0.2856 0.01769,-0.58471 0.05928,-0.90798 0.04149,-0.31796 0.100774,-0.67125 0.18969,-1.05813 l 2.548855,-12.03329 c 0.18969,-0.93624 0.426784,-1.69582 0.717235,-2.26993 0.284524,-0.57118 0.675744,-1.01632 1.144019,-1.3337 0.480134,-0.31797 1.066962,-0.53465 1.772344,-0.64594 0.699453,-0.11373 1.564878,-0.16892 2.578491,-0.16892 h 12.323412 l -0.812079,3.77791 h -10.63998 c -0.56312,0 -1.007687,0.0236 -1.345559,0.0741 -0.331943,0.0472 -0.592757,0.15311 -0.788365,0.30618 -0.201541,0.15423 -0.355653,0.37333 -0.450496,0.66186 -0.106708,0.28558 -0.213393,0.6642 -0.314161,1.13231 l -1.902748,8.96491 c -0.124473,0.61356 -0.189689,1.01277 -0.189689,1.19531 0,0.41218 0.142261,0.67481 0.420857,0.79904 0.278595,0.12374 0.841713,0.18249 1.695283,0.18249 h 10.616273 l -0.812077,3.77439 z m 29.258467,-11.88845 c -0.208642,0.92093 -0.448123,1.67522 -0.717233,2.25992 -0.269112,0.58177 -0.631287,1.03635 -1.089489,1.35197 -0.455237,0.32385 -1.033767,0.54171 -1.726105,0.64771 -0.697676,0.11772 -1.574364,0.17069 -2.631841,0.17069 h -7.404715 l -1.617042,7.46045 h -4.514435 l 3.206813,-14.9209 h 4.544074 l -0.807334,3.68606 h 5.723659 c 0.516882,0 0.935368,-0.0178 1.256643,-0.059 0.320088,-0.0472 0.580902,-0.12952 0.778883,-0.27674 0.197396,-0.14131 0.359209,-0.35919 0.480131,-0.63593 0.127454,-0.28264 0.252516,-0.68895 0.372253,-1.20121 l 0.345578,-1.50152 c 0.05928,-0.26496 0.09483,-0.48874 0.106706,-0.68892 0.01188,-0.19429 0.0177,-0.3533 0.04743,-0.47697 0,-0.40628 -0.148198,-0.68302 -0.426784,-0.81257 -0.278596,-0.12952 -0.85357,-0.19429 -1.695283,-0.19429 H 75.10657 l 0.806148,-3.78028 h 11.914409 c 1.677502,0 2.863016,0.16491 3.532831,0.48871 0.669814,0.33565 1.007685,0.98924 1.007685,1.97259 0,0.29441 -0.02371,0.58882 -0.06519,0.9068 -0.04149,0.31796 -0.106707,0.67715 -0.189689,1.05989 l -0.989905,4.55752 z m 16.987222,11.88845 h -4.48302 l 1.1215,-5.28178 0.18613,-1.16411 c 0,-0.40983 -0.13633,-0.67715 -0.42086,-0.8126 -0.2786,-0.13731 -0.84172,-0.20029 -1.68936,-0.20029 h -5.726033 l -1.61822,7.45811 h -4.51088 l 3.236449,-14.92092 h 4.516803 l -0.806149,3.68372 h 5.72603 c 0.52163,0 0.94248,-0.0222 1.2685,-0.059 0.31417,-0.0472 0.58091,-0.13198 0.77651,-0.28028 0.20155,-0.1431 0.36158,-0.3592 0.48606,-0.64066 0.11856,-0.28557 0.24897,-0.68774 0.37344,-1.2012 l 0.3438,-1.5027 c 0.0652,-0.26497 0.10671,-0.49166 0.12447,-0.68775 0.0237,-0.19606 0.0475,-0.35447 0.0593,-0.47576 0,-0.42986 -0.1482,-0.70424 -0.4505,-0.82849 -0.3023,-0.12418 -0.87135,-0.18249 -1.72491,-0.18249 H 94.686484 l 0.806151,-3.7785 h 11.920335 c 0.88914,0 1.62415,0.0447 2.20505,0.12663 0.58091,0.0765 1.04325,0.21787 1.39891,0.39451 0.34973,0.1885 0.60461,0.44163 0.74687,0.75371 0.1482,0.31795 0.22525,0.71836 0.22525,1.19531 0,0.28853 -0.0296,0.58884 -0.083,0.9068 -0.0474,0.31798 -0.11856,0.67715 -0.19561,1.06579 l -1.00175,4.55752 c -0.37345,1.70759 -1.10253,2.55551 -2.17542,2.55551 0.80615,0.1885 1.21515,0.74781 1.21515,1.68995 0,0.32973 -0.0415,0.61826 -0.12447,0.85968 l -1.47658,6.7886 z m 22.73814,-4.4221 c -0.20983,0.94802 -0.44457,1.70173 -0.71604,2.27288 -0.27267,0.5794 -0.63425,1.01867 -1.08712,1.33665 -0.45761,0.31502 -1.04147,0.52875 -1.74389,0.64181 -0.70361,0.11773 -1.58859,0.17069 -2.64251,0.17069 h -7.84217 c -0.91521,0 -1.6615,-0.0423 -2.24477,-0.12373 -0.58091,-0.0808 -1.04325,-0.21499 -1.38112,-0.39805 -0.34973,-0.1825 -0.58683,-0.42986 -0.72316,-0.74781 -0.13042,-0.31798 -0.20155,-0.7125 -0.20155,-1.18354 0,-0.28264 0.0118,-0.58295 0.0593,-0.9068 0.0355,-0.31798 0.10077,-0.67128 0.18376,-1.05402 l 2.61405,-12.02974 c 0.20154,-0.93625 0.44457,-1.69583 0.7291,-2.267 0.27859,-0.57117 0.6461,-1.01278 1.10844,-1.33076 0.45051,-0.31795 1.02548,-0.53583 1.72493,-0.6477 0.69352,-0.11195 1.55895,-0.16491 2.59034,-0.16491 h 7.84218 c 0.84764,0 1.56488,0.0354 2.14577,0.10593 0.57498,0.0706 1.04918,0.2003 1.41076,0.40041 0.36158,0.19429 0.6224,0.4475 0.77059,0.77136 0.16005,0.31798 0.2371,0.71836 0.2371,1.21298 0,0.28853 -0.0296,0.58884 -0.083,0.9068 -0.0474,0.31798 -0.11856,0.66538 -0.20154,1.03045 l -2.5785,12.03566 z m -2.20505,-10.4988 c 0.0344,-0.24554 0.0741,-0.4593 0.10668,-0.65537 0.0321,-0.19606 0.045,-0.37568 0.045,-0.53997 0,-0.40746 -0.14404,-0.67243 -0.43686,-0.79668 -0.29046,-0.12374 -0.85713,-0.18249 -1.71011,-0.18249 h -4.4516 c -0.51865,0 -0.94485,0.0156 -1.27442,0.059 -0.33194,0.0389 -0.5975,0.13419 -0.79192,0.2744 -0.19977,0.14532 -0.35921,0.35917 -0.48725,0.64593 -0.12033,0.28559 -0.23473,0.6854 -0.3355,1.19533 l -1.93417,8.96549 c -0.12209,0.61356 -0.18612,1.0128 -0.18612,1.19533 0,0.41218 0.14226,0.67479 0.42085,0.79904 0.28453,0.1273 0.85358,0.18249 1.70122,0.18249 h 4.48124 c 0.53348,0 0.97212,-0.0134 1.2922,-0.0412 0.32009,-0.0294 0.58091,-0.11951 0.77651,-0.26497 0.20155,-0.1402 0.35566,-0.35743 0.47421,-0.64595 0.11263,-0.28559 0.23118,-0.696 0.35566,-1.22477 l 1.96795,-8.96491 z m 25.13585,-1.75118 h -3.14754 v 2.91293 h 3.51979 v 0.87618 h -4.58201 v -8.0805 h 4.40418 v 0.8756 h -3.33722 v 2.55079 h 3.14753 v 0.86558 z m 1.70536,-4.72534 h 1.05926 v 8.51445 h -1.05985 v -8.51445 z m 3.43502,5.80466 c 0.0267,1.42378 0.93241,2.01378 2.00352,2.01378 0.7611,0 1.22997,-0.13531 1.61407,-0.2991 l 0.1974,0.75368 c -0.37344,0.16714 -1.02546,0.37097 -1.95017,0.37097 -1.80198,0 -2.86894,-1.18532 -2.86894,-2.93413 0,-1.75175 1.03733,-3.11961 2.73853,-3.11961 1.92053,0 2.41253,1.65343 2.41253,2.72038 0,0.21898 -0.0118,0.37214 -0.0355,0.49461 h -4.10188 z m 3.11613,-0.75664 c 0.0107,-0.65361 -0.27741,-1.70172 -1.47598,-1.70172 -1.08651,0 -1.54412,0.97745 -1.63007,1.70762 h 3.10605 z m 3.38819,0.32975 h 0.0212 c 0.1482,-0.2003 0.34025,-0.4534 0.51096,-0.6595 l 1.72611,-2.00201 h 1.26257 l -2.243,2.39064 2.56783,3.4211 h -1.29932 l -2.00352,-2.77929 -0.54297,0.60062 v 2.19044 h -1.04917 v -8.53859 h 1.04917 v 5.37011 z m 5.88608,-4.05115 v 1.38964 h 1.51864 v 0.80669 h -1.51864 v 3.13256 c 0,0.72427 0.20745,1.12468 0.79428,1.12468 0.29283,0 0.46236,-0.0236 0.61766,-0.0648 l 0.0474,0.80082 c -0.20155,0.0765 -0.52756,0.1471 -0.94249,0.1471 -0.4902,0 -0.88913,-0.16491 -1.1452,-0.44162 -0.28749,-0.31796 -0.41019,-0.83612 -0.41019,-1.51917 v -3.1679 h -0.90514 v -0.81317 h 0.90099 v -1.07756 l 1.03733,-0.3109 z m 2.71185,3.20324 c 0,-0.67715 -0.0118,-1.266 -0.0433,-1.8077 h 0.92707 l 0.0475,1.15409 h 0.0379 c 0.26555,-0.77138 0.9164,-1.26599 1.63008,-1.26599 0.1067,0 0.19146,0.0111 0.28748,0.0236 v 0.9951 c -0.1067,-0.0236 -0.21339,-0.0236 -0.36158,-0.0236 -0.74686,0 -1.27916,0.55351 -1.42261,1.34843 -0.0266,0.14711 -0.0374,0.32385 -0.0374,0.48872 v 3.09724 h -1.06577 v -3.99814 z m 9.11483,1.04809 c 0,2.14923 -1.50797,3.07959 -2.90866,3.07959 -1.57081,0 -2.79781,-1.14822 -2.79781,-2.98536 0,-1.92547 1.29042,-3.0678 2.89384,-3.0678 1.6775,0 2.81203,1.20709 2.81203,2.97357 z m -4.62351,0.0648 c 0,1.27187 0.72317,2.23166 1.76227,2.23166 1.01243,0 1.77412,-0.94212 1.77412,-2.24933 0,-0.98333 -0.49554,-2.21398 -1.75278,-2.21398 -1.24479,0 -1.7842,1.15409 -1.7842,2.24343 z m 5.96017,-1.34252 c 0,-0.61239 -0.0107,-1.08934 -0.0475,-1.57218 h 0.94249 l 0.0593,0.96568 h 0.0266 c 0.28689,-0.53583 0.96382,-1.07756 1.92824,-1.07756 0.8097,0 2.06635,0.47695 2.06635,2.46718 v 3.45644 H 188.4 v -3.34514 c 0,-0.93624 -0.35565,-1.71643 -1.35741,-1.71643 -0.6876,0 -1.23293,0.49107 -1.42262,1.08108 -0.0475,0.12952 -0.0712,0.31208 -0.0712,0.49461 v 3.49175 h -1.06696 v -4.23424 z m 7.87892,-3.20324 c 0,0.35919 -0.25015,0.6536 -0.67693,0.6536 -0.38292,0 -0.63899,-0.28851 -0.63899,-0.64771 0,-0.35919 0.26674,-0.65948 0.66567,-0.65948 0.38884,0 0.65025,0.28852 0.65025,0.65948 z m -1.18374,7.4369 v -5.81232 h 1.06105 v 5.80585 h -1.06105 z m 2.15764,-0.61237 2.63184,-3.41521 c 0.26555,-0.32386 0.51095,-0.6006 0.77296,-0.9068 v -0.0236 h -3.1594 v -0.85439 h 4.44271 v 0.66184 l -2.61405,3.3681 c -0.24896,0.32621 -0.48014,0.62416 -0.74688,0.91092 v 0.0236 h 3.39649 v 0.84204 h -4.73019 v -0.62477 z m 9.9346,-0.77725 c 0,0.50639 0.0226,0.99511 0.086,1.39552 h -0.95256 l -0.086,-0.73604 h -0.0374 c -0.32602,0.4534 -0.95433,0.86558 -1.78419,0.86558 -1.18315,0 -1.79013,-0.82436 -1.79013,-1.66638 0,-1.40141 1.25665,-2.16689 3.51505,-2.15512 v -0.12374 c 0,-0.46517 -0.13279,-1.33665 -1.33133,-1.32485 -0.55423,0 -1.11853,0.15311 -1.52931,0.42983 l -0.23948,-0.7007 c 0.48014,-0.30031 1.19382,-0.50639 1.92883,-0.50639 1.7842,0 2.22107,1.21298 2.22107,2.36118 v 2.1728 z m -1.02724,-1.5663 c -1.15588,-0.0236 -2.4718,0.1767 -2.4718,1.30131 0,0.69482 0.4582,1.0069 0.99109,1.0069 0.76466,0 1.26257,-0.47694 1.42854,-0.97156 0.0355,-0.11773 0.0474,-0.24142 0.0474,-0.33562 v -1.00691 z m 6.90383,2.75572 c -0.2774,0.13553 -0.89506,0.33564 -1.6775,0.33564 -1.76404,0 -2.90924,-1.18356 -2.90924,-2.95592 0,-1.78415 1.23056,-3.09134 3.13746,-3.09134 0.62831,0 1.17959,0.15311 1.47003,0.31206 l -0.24303,0.80082 c -0.25489,-0.12952 -0.65204,-0.27676 -1.23293,-0.27676 -1.34556,0 -2.06872,0.99513 -2.06872,2.19634 0,1.34253 0.87135,2.17277 2.02722,2.17277 0.59869,0 1.00178,-0.14132 1.30407,-0.27087 l 0.17788,0.78905 z m -0.192,1.9078 c 0.49021,-0.0354 0.90575,-0.16491 1.15589,-0.4534 0.28747,-0.31796 0.41018,-0.77725 0.41018,-2.16687 v -4.88727 h 1.05986 v 5.28766 c 0,1.12467 -0.17542,1.85481 -0.69769,2.38477 -0.46828,0.46517 -1.24657,0.65948 -1.81145,0.65948 l -0.11627,-0.83025 z m 2.74921,-9.13271 c 0,0.3474 -0.23947,0.64771 -0.67692,0.64771 -0.38827,0 -0.63901,-0.30031 -0.63901,-0.64771 0,-0.35919 0.26676,-0.6595 0.66627,-0.6595 0.39418,0 0.64966,0.30031 0.64966,0.6595 z m 5.72129,6.04137 c 0,0.50639 0.0202,0.99513 0.0854,1.39551 h -0.95909 l -0.0854,-0.73603 h -0.0321 c -0.32483,0.45929 -0.95316,0.86558 -1.79013,0.86558 -1.18253,0 -1.78418,-0.82434 -1.78418,-1.66048 0,-1.40142 1.25663,-2.1669 3.50912,-2.161 v -0.11773 c 0,-0.46517 -0.12749,-1.33663 -1.32542,-1.32486 -0.55423,0 -1.12386,0.15312 -1.5293,0.42983 l -0.24421,-0.70069 c 0.48426,-0.30031 1.19853,-0.50639 1.93357,-0.50639 1.78418,0 2.22165,1.20708 2.22165,2.3612 v 2.16687 z m -1.02782,-1.56628 c -1.15588,-0.0236 -2.47772,0.1767 -2.47772,1.30131 0,0.7007 0.46352,1.0069 0.99107,1.0069 0.77297,0 1.2685,-0.47697 1.43803,-0.96568 0.0374,-0.12374 0.0486,-0.24143 0.0486,-0.33563 z m 5.33243,-5.02272 c 0.50621,-0.0823 1.17127,-0.15311 2.013,-0.15311 1.03851,0 1.8008,0.24142 2.27975,0.67127 0.43686,0.38275 0.71367,0.97157 0.71367,1.68993 0,0.73014 -0.2135,1.30721 -0.62832,1.72527 -0.5643,0.58882 -1.45936,0.88913 -2.48248,0.88913 -0.31413,0 -0.60697,-0.0178 -0.84763,-0.0708 v 3.23856 h -1.04917 v -8.02043 z m 1.04918,3.89806 c 0.2282,0.0648 0.5157,0.0884 0.86779,0.0884 1.2685,0 2.04028,-0.62416 2.04028,-1.71348 0,-1.07756 -0.77296,-1.58984 -1.91758,-1.58984 -0.45818,0 -0.8097,0.0354 -0.99107,0.0883 v 3.13845 z m 5.13921,0.0941 c 0,-0.67715 -0.0112,-1.26599 -0.0475,-1.8077 h 0.93241 l 0.0414,1.1541 h 0.0386 c 0.26555,-0.77136 0.92114,-1.26597 1.63007,-1.26597 0.10664,0 0.19155,0.0178 0.29283,0.0236 v 0.99513 c -0.11269,-0.0236 -0.22407,-0.0236 -0.36277,-0.0236 -0.75103,0 -1.27798,0.5535 -1.42737,1.34842 -0.0202,0.14132 -0.0375,0.32386 -0.0375,0.48872 v 3.09136 h -1.05508 v -4.00403 z m 7.99212,2.60263 c 0,0.50639 0.0201,0.9951 0.0846,1.39552 h -0.95849 l -0.0829,-0.73604 h -0.0296 c -0.32601,0.4534 -0.95434,0.86558 -1.79012,0.86558 -1.17958,0 -1.78418,-0.82437 -1.78418,-1.66638 0,-1.40142 1.25663,-2.1669 3.50911,-2.15512 v -0.12374 c 0,-0.46517 -0.12457,-1.34253 -1.32185,-1.33076 -0.55126,0 -1.12031,0.15312 -1.52932,0.42986 l -0.24303,-0.70072 c 0.48606,-0.30029 1.19736,-0.50639 1.93831,-0.50639 1.78422,0 2.22285,1.20711 2.22285,2.3612 v 2.1669 z m -1.02901,-1.56628 c -1.15588,-0.0236 -2.47774,0.1767 -2.47774,1.30719 0,0.70069 0.45644,1.0069 0.9899,1.0069 0.77652,0 1.26851,-0.47695 1.43449,-0.96569 0.0356,-0.12374 0.0475,-0.24142 0.0475,-0.33562 v -1.01278 z m 3.05862,-2.84405 0.78835,2.95003 c 0.15413,0.6477 0.30826,1.24832 0.42087,1.84304 h 0.0356 c 0.12456,-0.58295 0.32007,-1.20711 0.5157,-1.83127 l 0.95432,-2.9618 h 0.89509 l 0.90097,2.90291 c 0.21327,0.70072 0.37937,1.31309 0.5157,1.89603 h 0.0356 c 0.0948,-0.58294 0.24894,-1.19531 0.44458,-1.87836 l 0.82984,-2.9147 h 1.04917 l -1.88495,5.80586 h -0.97213 l -0.89445,-2.77398 c -0.20164,-0.64771 -0.37345,-1.22476 -0.51572,-1.90781 h -0.0238 c -0.14808,0.69482 -0.32601,1.28954 -0.53347,1.9137 l -0.94249,2.76162 h -0.96621 l -1.7664,-5.80587 h 1.08473 z m 12.51308,4.4162 c 0,0.50052 0.0238,0.99513 0.0829,1.38965 h -0.95434 l -0.0889,-0.73604 h -0.0356 c -0.33195,0.4534 -0.96026,0.86558 -1.79013,0.86558 -1.18552,0 -1.78421,-0.82437 -1.78421,-1.66638 0,-1.40142 1.25072,-2.1669 3.50914,-2.15512 v -0.12374 c 0,-0.46517 -0.13621,-1.33663 -1.32778,-1.32486 -0.56312,0 -1.12624,0.15312 -1.53524,0.42983 l -0.24303,-0.70659 c 0.48013,-0.30029 1.19144,-0.50639 1.92646,-0.50639 1.79013,0 2.21691,1.21298 2.21691,2.3612 v 2.1669 z m -1.0314,-1.56628 c -1.15586,-0.0236 -2.4718,0.17671 -2.4718,1.30132 0,0.70069 0.45644,1.0069 0.98992,1.0069 0.77057,0 1.26849,-0.47695 1.44038,-0.96569 0.0296,-0.12374 0.0415,-0.24142 0.0415,-0.33562 v -1.01278 z m -98.74139,9.89232 0.79429,3.01481 c 0.16596,0.65948 0.32009,1.27774 0.43271,1.89013 h 0.0414 c 0.13042,-0.60649 0.32602,-1.24243 0.52756,-1.87836 l 0.97211,-3.02658 h 0.92531 l 0.92292,2.96769 c 0.22347,0.71249 0.39359,1.33666 0.5317,1.93725 h 0.0379 c 0.10077,-0.60059 0.2608,-1.22476 0.45286,-1.92547 l 0.85357,-2.97357 h 1.07407 l -1.92289,5.89357 h -0.98582 l -0.91285,-2.82874 c -0.21043,-0.6642 -0.38173,-1.2542 -0.53051,-1.94784 h -0.0237 c -0.1482,0.70896 -0.33195,1.32252 -0.54238,1.95786 l -0.96146,2.81754 h -0.98812 l -1.8008,-5.92949 h 1.11142 z m 11.66545,3.33276 -0.8595,2.59085 h -1.10845 l 2.83337,-8.25537 h 1.28036 l 2.8393,8.26127 h -1.14995 l -0.88913,-2.59675 h -2.95193 z m 2.73853,-0.83024 -0.82985,-2.37887 c -0.1897,-0.54171 -0.30824,-1.03045 -0.43272,-1.5074 h -0.0237 c -0.13041,0.47695 -0.24304,0.99513 -0.42085,1.49562 l -0.81801,2.39065 h 2.51329 z m 8.429,-5.06981 v 6.94817 c 0,0.52996 0.0237,1.13055 0.0533,1.53684 h -0.9662 l -0.0474,-1.02455 h -0.0414 c -0.32601,0.65948 -1.04325,1.16587 -2.01537,1.16587 -1.44632,0 -2.5607,-1.21299 -2.5607,-3.01479 -0.0177,-1.96845 1.227,-3.1738 2.67333,-3.1738 0.92469,0 1.52931,0.42986 1.79604,0.89503 h 0.0237 v -3.34514 h 1.06697 z m -1.07288,4.98148 c 0,-0.13531 -0.0177,-0.31796 -0.0474,-0.4534 -0.16005,-0.67125 -0.75873,-1.23653 -1.57081,-1.23653 -1.13216,0 -1.79012,0.98334 -1.79012,2.27877 0,1.20709 0.59868,2.19632 1.76049,2.19632 0.72909,0 1.38704,-0.48872 1.59451,-1.28952 0.0296,-0.14733 0.0474,-0.29443 0.0474,-0.46519 v -1.03045 z m 2.8808,-0.8067 c 0,-0.62414 -0.0237,-1.11288 -0.0475,-1.60159 h 0.95434 l 0.0474,0.96566 h 0.0356 c 0.32601,-0.55938 0.88913,-1.08931 1.88496,-1.08931 0.80022,0 1.41669,0.48872 1.6775,1.18941 h 0.0237 c 0.17782,-0.3415 0.43272,-0.58882 0.67575,-0.77135 0.35565,-0.26733 0.74094,-0.41806 1.30999,-0.41806 0.80022,0 1.97388,0.51816 1.97388,2.57316 v 3.47998 h -1.06696 v -3.34454 c 0,-1.1541 -0.43271,-1.82537 -1.29814,-1.82537 -0.62832,0 -1.10252,0.45634 -1.29813,0.97156 -0.0534,0.16246 -0.0889,0.34152 -0.0889,0.54173 v 3.66251 h -1.06697 v -3.57478 c 0,-0.94212 -0.41492,-1.61927 -1.24478,-1.61927 -0.66389,0 -1.17366,0.54171 -1.34556,1.08344 -0.0652,0.14732 -0.0889,0.34388 -0.0889,0.52581 v 3.56242 h -1.06695 v -4.32788 z m 11.49947,-3.27387 c 0,0.37096 -0.26082,0.66537 -0.6876,0.66537 -0.40307,0 -0.66389,-0.29441 -0.66389,-0.66537 0,-0.36507 0.27267,-0.67126 0.68168,-0.67126 0.39122,0 0.66389,0.29441 0.66389,0.67126 z m -1.20922,7.59589 v -5.94718 h 1.08474 v 5.91714 h -1.08481 z m 2.88672,-4.32193 c 0,-0.62414 -0.0118,-1.11288 -0.0533,-1.6016 h 0.96026 l 0.0593,0.98334 h 0.0237 c 0.29045,-0.54761 0.98398,-1.10111 1.96795,-1.10111 0.82393,0 2.11022,0.48874 2.11022,2.52607 v 3.52709 h -1.08475 v -3.45701 c 0,-0.95567 -0.35566,-1.75471 -1.38112,-1.75471 -0.70539,0 -1.25665,0.50639 -1.45819,1.107 -0.0533,0.13242 -0.0712,0.31796 -0.0712,0.50049 v 3.56242 H 188.495 v -4.3279 z m 8.04963,-3.27387 c 0,0.37096 -0.2608,0.66537 -0.69352,0.66537 -0.39714,0 -0.65203,-0.29441 -0.65203,-0.66537 0,-0.36507 0.26674,-0.67126 0.67574,-0.67126 0.39122,0 0.66389,0.29441 0.66389,0.67479 z m -1.20329,7.59589 v -5.94718 h 1.08474 v 5.91714 h -1.08474 z m 2.73853,-1.08933 c 0.33194,0.20029 0.90099,0.41806 1.4404,0.41806 0.77651,0 1.14996,-0.37685 1.14996,-0.87912 0,-0.51818 -0.30824,-0.78315 -1.09661,-1.07756 -1.09067,-0.39451 -1.59451,-0.97156 -1.59451,-1.67816 0,-0.95978 0.78836,-1.74293 2.06279,-1.74293 0.59869,0 1.13217,0.1589 1.45225,0.36507 l -0.2608,0.78902 c -0.23711,-0.1471 -0.66982,-0.35917 -1.22109,-0.35917 -0.6461,0 -0.98397,0.36507 -0.98397,0.8067 0,0.48871 0.33787,0.71247 1.1203,1.01867 1.02548,0.37684 1.57081,0.88913 1.57081,1.77236 0,1.04812 -0.82986,1.79005 -2.22283,1.79005 -0.65796,0 -1.26257,-0.17069 -1.68343,-0.42395 l 0.26081,-0.8067 z m 6.3425,-6.26514 v 1.42496 h 1.55303 v 0.82318 h -1.55903 v 3.19735 c 0,0.73603 0.20746,1.1482 0.80615,1.1482 0.29638,0 0.46829,-0.0236 0.63426,-0.0766 l 0.0474,0.81847 c -0.21339,0.0708 -0.54533,0.1471 -0.96619,0.1471 -0.50977,0 -0.91285,-0.17069 -1.17366,-0.4534 -0.29638,-0.33565 -0.42085,-0.8597 -0.42085,-1.5604 v -3.23856 h -0.9247 v -0.81847 h 0.91876 v -1.107 l 1.06697,-0.31796 z m 2.77411,3.27387 c 0,-0.68892 -0.0179,-1.29541 -0.0533,-1.84302 h 0.9484 l 0.0533,1.17765 h 0.0356 c 0.27267,-0.78903 0.93655,-1.29542 1.66565,-1.29542 0.11269,0 0.19558,0.0178 0.29043,0.0236 v 0.98276 c -0.10664,-0.0236 -0.21933,-0.0236 -0.3675,-0.0236 -0.77058,0 -1.30999,0.56351 -1.45817,1.37609 -0.0296,0.14131 -0.0415,0.32385 -0.0415,0.49639 v 3.162 h -1.07881 v -4.08057 z m 8.16225,2.66741 c 0,0.51227 0.018,1.01868 0.0829,1.41907 h -0.97805 l -0.0889,-0.74192 h -0.0414 c -0.32604,0.45928 -0.97213,0.88323 -1.8257,0.88323 -1.20922,0 -1.8257,-0.84201 -1.8257,-1.7017 0,-1.43675 1.28036,-2.21988 3.59212,-2.20811 v -0.11773 c 0,-0.47694 -0.13621,-1.37197 -1.35742,-1.36019 -0.56905,0 -1.14994,0.1589 -1.57079,0.44162 l -0.24898,-0.71836 c 0.49792,-0.30619 1.22107,-0.51817 1.97387,-0.51817 1.81977,0 2.27028,1.24125 2.27028,2.41889 v 2.21401 z m -1.05511,-1.60752 c -1.18551,-0.0236 -2.53106,0.1825 -2.53106,1.33666 0,0.71247 0.46827,1.03045 1.01362,1.03045 0.78835,0 1.29812,-0.48874 1.47002,-0.99513 0.0356,-0.11773 0.0475,-0.24142 0.0475,-0.34153 v -1.0428 z m 7.05975,2.82051 c -0.29046,0.14131 -0.91879,0.34739 -1.719,0.34739 -1.80199,0 -2.97564,-1.21298 -2.97564,-3.02658 0,-1.82535 1.25663,-3.162 3.2068,-3.162 0.64018,0 1.20922,0.1589 1.49969,0.31798 l -0.24897,0.82434 c -0.2608,-0.13531 -0.6698,-0.28263 -1.25663,-0.28263 -1.36928,0 -2.11023,1.01867 -2.11023,2.24345 0,1.37195 0.88322,2.21986 2.06873,2.21986 0.61055,0 1.01954,-0.1471 1.32777,-0.28264 l 0.18975,0.8067 z m -0.20163,1.95489 c 0.50976,-0.0412 0.92469,-0.1707 1.18549,-0.46517 0.29046,-0.32973 0.41494,-0.8008 0.41494,-2.21989 v -4.98795 h 1.08474 v 5.40543 c 0,1.15412 -0.18975,1.90193 -0.72315,2.44364 -0.48013,0.47697 -1.27444,0.67717 -1.84941,0.67717 l -0.13038,-0.84791 z m 2.81559,-9.33881 c 0,0.35919 -0.24897,0.66538 -0.69353,0.66538 -0.39716,0 -0.65796,-0.30619 -0.65796,-0.66538 0,-0.36507 0.26673,-0.67126 0.68167,-0.67126 0.40308,0 0.66388,0.30619 0.66388,0.67422 z m 2.86302,0 c 0,0.37097 -0.26083,0.66538 -0.69354,0.66538 -0.39715,0 -0.65204,-0.29441 -0.65204,-0.66538 0,-0.36507 0.26674,-0.67126 0.67576,-0.67126 0.39121,0 0.66388,0.29442 0.66388,0.67422 z m -1.20922,7.60177 v -5.94716 h 1.08472 v 5.89947 h -1.08472 z m 6.04017,-7.60765 c 0,0.37095 -0.25488,0.66538 -0.6876,0.66538 -0.39714,0 -0.65795,-0.29443 -0.65795,-0.66538 0,-0.36625 0.27265,-0.67363 0.68168,-0.67363 0.3912,0 0.65794,0.29443 0.65794,0.67127 z m -1.20328,7.59999 v -5.94716 h 1.08472 v 5.90713 h -1.09066 z m 5.37036,-8.1376 c 0.46827,-0.10949 1.21516,-0.18249 1.96202,-0.18249 1.06697,0 1.75457,0.18249 2.26434,0.60062 0.43272,0.31795 0.69945,0.80669 0.69945,1.46028 0,0.81259 -0.54534,1.50741 -1.41076,1.81949 v 0.0376 c 0.78837,0.18605 1.71307,0.83436 1.71307,2.05914 0,0.71247 -0.29046,1.26421 -0.71724,1.65461 -0.5631,0.52993 -1.5056,0.77135 -2.86302,0.77135 -0.74095,0 -1.30999,-0.053 -1.66565,-0.0941 v -8.1547 z m 1.0729,3.38224 h 0.97211 c 1.12032,0 1.79012,-0.60062 1.79012,-1.3973 0,-0.95389 -0.72908,-1.3484 -1.81383,-1.3484 -0.49197,0 -0.7765,0.0412 -0.9484,0.0766 v 2.67329 z m 0,3.94751 c 0.21328,0.0394 0.51568,0.0472 0.90098,0.0472 1.10845,0 2.13392,-0.40275 2.13392,-1.6016 0,-1.11584 -0.96619,-1.59574 -2.13983,-1.59574 h -0.88915 v 3.15258 z m 6.78704,-6.7951 c 0,0.37097 -0.2608,0.66538 -0.68758,0.66538 -0.39714,0 -0.65797,-0.29441 -0.65797,-0.66538 0,-0.36683 0.27268,-0.67419 0.68168,-0.67419 0.39123,0 0.65796,0.29441 0.65796,0.67715 z m -1.20328,7.5959 v -5.94716 h 1.07881 v 5.91418 h -1.07881 z m 2.20505,-0.62416 2.69112,-3.49176 c 0.27267,-0.32975 0.5157,-0.61239 0.78835,-0.93034 v -0.0236 h -3.23644 v -0.85971 h 4.54053 v 0.67128 l -2.66149,3.44875 c -0.25488,0.33565 -0.48606,0.64183 -0.75873,0.93624 v 0.0236 h 3.47949 v 0.85378 h -4.8369 v -0.62592 z m 5.9572,-3.70374 c 0,-0.62416 -0.0112,-1.11287 -0.0475,-1.60395 h 0.97272 l 0.0652,0.97743 h 0.0202 c 0.2964,-0.5476 0.98992,-1.1011 1.97389,-1.1011 0.82393,0 2.1102,0.48874 2.1102,2.52609 v 3.52707 h -1.09073 v -3.44582 c 0,-0.95391 -0.35566,-1.75471 -1.38113,-1.75471 -0.7036,0 -1.26256,0.50639 -1.45996,1.107 -0.0475,0.13531 -0.0735,0.31796 -0.0735,0.50049 v 3.56831 h -1.08771 v -4.32789 z m 7.45097,1.55451 c 0.0238,1.4603 0.95434,2.0609 2.05092,2.0609 0.77653,0 1.25664,-0.13242 1.64788,-0.30619 l 0.19558,0.77432 c -0.37938,0.17069 -1.0492,0.38274 -1.9976,0.38274 -1.83755,0 -2.94007,-1.21301 -2.94007,-3.00304 0,-1.78827 1.06103,-3.18554 2.79781,-3.18554 1.96202,0 2.47179,1.69582 2.47179,2.78513 0,0.21899 -0.0112,0.37687 -0.0414,0.50052 h -4.19021 z m 3.18309,-0.77135 c 0.0112,-0.67128 -0.28452,-1.73705 -1.51153,-1.73705 -1.10845,0 -1.57673,0.98924 -1.66565,1.73705 h 3.17125 z m 2.24061,2.45304 c 0.33195,0.2003 0.901,0.41809 1.44041,0.41809 0.77652,0 1.14994,-0.37687 1.14994,-0.88326 0,-0.51404 -0.30822,-0.78315 -1.10251,-1.0746 -1.08476,-0.39451 -1.5886,-0.97158 -1.5886,-1.67818 0,-0.95978 0.78837,-1.74291 2.05687,-1.74291 0.6046,0 1.13809,0.1589 1.45817,0.36507 l -0.2608,0.78902 c -0.23712,-0.1471 -0.6639,-0.35919 -1.22108,-0.35919 -0.64017,0 -0.98991,0.36509 -0.98991,0.8067 0,0.48874 0.34974,0.71249 1.12624,1.01867 1.01954,0.37686 1.56488,0.88913 1.56488,1.77238 0,1.04812 -0.82987,1.79003 -2.22284,1.79003 -0.65797,0 -1.26257,-0.17069 -1.6775,-0.42395 l 0.25489,-0.8067 z m 6.24175,-6.50653 c 0,0.37094 -0.26083,0.66535 -0.69354,0.66535 -0.39715,0 -0.65203,-0.29441 -0.65203,-0.66535 0,-0.36921 0.26673,-0.67718 0.67575,-0.67718 0.39121,0 0.66388,0.29444 0.66388,0.67128 z m -1.20922,7.59587 v -5.94716 h 1.08472 v 5.91654 h -1.08472 z m 3.49132,-2.77161 c 0.0238,1.46028 0.94843,2.0609 2.045,2.0609 0.77653,0 1.25665,-0.13553 1.65974,-0.30619 l 0.19558,0.77136 c -0.3853,0.1707 -1.04918,0.38038 -2.00352,0.38038 -1.83755,0 -2.93414,-1.21298 -2.93414,-3.00301 0,-1.79005 1.05511,-3.18557 2.7978,-3.18557 1.96202,0 2.46587,1.69582 2.46587,2.78516 0,0.21787 -0.0112,0.37684 -0.0414,0.50049 h -4.19672 z m 3.18309,-0.77138 c 0.0112,-0.67421 -0.28451,-1.74058 -1.50559,-1.74058 -1.11437,0 -1.58265,0.98924 -1.66565,1.73707 h 3.17124 z"
       id="path2"
       style="fill:#7e7e7e;stroke-width:0.59078914;fill-opacity:0.49411765" />
    <path
       style="opacity:0.98999999;vector-effect:none;fill:#dc3a39;fill-opacity:1;stroke:#b70000;stroke-width:0.00093637;stroke-linecap:butt;stroke-linejoin:miter;stroke-miterlimit:4;stroke-dasharray:none;stroke-dashoffset:0;stroke-opacity:1"
       d="m 141.22123,255.20923 0.67327,-0.0118 0.0945,31.561 -0.73233,0.0236 z"
       id="path1410"
       inkscape:connector-curvature="0" />
  </g>
</svg>
